<svg width="20" height="20" viewBox="0 0 20 20" fill="none" xmlns="http://www.w3.org/2000/svg">
<g clip-path="url(#clip0)">
<path fill-rule="evenodd" clip-rule="evenodd" d="M18.3792 1.61947C17.2978 0.540365 15.8803 0 14.4611 0C13.0436 0 11.6261 0.540365 10.5446 1.61947C10.2657 1.89779 10.0227 2.19889 9.8155 2.51628C9.92805 4.06413 11.0699 5.78288 12.5608 7.19889C14.1006 8.65885 15.9928 9.77865 17.5196 10.0553C17.5522 10.0618 17.5848 10.0667 17.6175 10.0716C17.885 9.88607 18.1395 9.67448 18.3776 9.43685C19.4591 8.35775 20.0006 6.94336 20.0006 5.52897C20.0006 4.11296 19.4607 2.69857 18.3792 1.61947ZM0.770555 18.4945C0.527508 18.7549 0.339922 19.0511 0.19964 19.3799C-0.0841872 20.0423 -0.134754 20.14 0.534033 19.8324C0.883108 19.6712 1.20445 19.4661 1.48991 19.2122C1.79494 19.4954 2.08203 19.6419 2.41316 19.6842C2.75245 19.7282 3.09337 19.6533 3.52563 19.5052C4.93661 19.0202 9.79918 15.0521 12.8267 12.5814C13.6031 11.9482 14.254 11.416 14.7188 11.0498C15.2979 11.0238 15.8721 10.9066 16.4218 10.6999C14.9423 10.1579 13.3291 9.1097 11.9785 7.82878C10.7306 6.64551 9.69642 5.25553 9.1777 3.86556C9.02437 4.35059 8.94118 4.85026 8.92487 5.35319C8.60678 5.75358 8.1419 6.3265 7.5775 7.02311C5.10952 10.0651 0.798286 15.376 0.458998 16.499C0.338291 16.8994 0.271412 17.2331 0.308929 17.5602C0.348078 17.8955 0.486729 18.1934 0.770555 18.4945ZM13.4482 10.9619C13.1089 11.237 12.7125 11.5609 12.2786 11.9141C9.29841 14.3457 4.51413 18.252 3.24344 18.6882C2.92862 18.7956 2.70025 18.8525 2.52245 18.8298C2.36749 18.8102 2.21253 18.7158 2.01841 18.5221L1.44097 17.946C1.26644 17.7718 1.18488 17.6204 1.16693 17.4642C1.14573 17.277 1.1963 17.0443 1.28601 16.748C1.57636 15.7878 5.81745 10.5615 8.24629 7.56836C8.53501 7.21191 8.79926 6.88639 9.02763 6.60645C9.23316 7.64323 9.73883 8.63281 10.5446 9.43685C11.3668 10.2572 12.3846 10.765 13.4482 10.9619Z" fill="#A7A7A7"/>
</g>
<defs>
<clipPath id="clip0">
<rect width="20" height="20" fill="white"/>
</clipPath>
</defs>
</svg>
