<svg width="24" height="24" viewBox="0 0 24 24" fill="none" xmlns="http://www.w3.org/2000/svg">
<path fill-rule="evenodd" clip-rule="evenodd" d="M12 0C18.627 0 24 5.37305 24 12C24 18.627 18.627 24 12 24C5.37305 24 0 18.627 0 12C0 5.37305 5.37305 0 12 0ZM16.2715 12.7422C16.8828 12.3477 16.8809 11.9082 16.2715 11.5586L9.95703 7.92969C9.45898 7.61719 8.93945 7.80078 8.95313 8.45117L8.97266 15.7852C9.01562 16.4902 9.41797 16.6836 10.0117 16.3574L16.2715 12.7422ZM12 2.4375C17.2812 2.4375 21.5625 6.71875 21.5625 12C21.5625 17.2812 17.2812 21.5625 12 21.5625C6.71875 21.5625 2.4375 17.2812 2.4375 12C2.4375 6.71875 6.71875 2.4375 12 2.4375Z" fill="#A7A7A7"/>
</svg>
