<svg width="123" height="99" viewBox="0 0 123 99" fill="none" xmlns="http://www.w3.org/2000/svg">
<g clip-path="url(#clip0)">
<path fill-rule="evenodd" clip-rule="evenodd" d="M26.76 22.96C21.95 22.96 16.68 22.18 12.2 23.96V23.84C11.16 24.3 10.14 24.93 9.16002 25.7L9.13002 25.73C8.22002 26.45 7.35002 27.3 6.54002 28.26V28.27C6.45002 28.38 6.36002 28.49 6.27002 28.6C6.23002 28.65 6.19002 28.7 6.14002 28.76L6.13002 28.78C6.03002 28.89 5.94002 29 5.86002 29.11L5.85002 29.12C5.81002 29.17 5.78002 29.22 5.74002 29.27L5.72002 29.29V29.3C5.68002 29.35 5.65002 29.4 5.61002 29.45L5.58002 29.5L5.48002 29.64L5.47002 29.66C5.43002 29.71 5.39002 29.77 5.35002 29.82L5.32002 29.86L5.23002 29.98L5.20002 30.02C5.16002 30.07 5.13002 30.12 5.10002 30.17L5.09002 30.18L5.07002 30.21C5.04002 30.25 5.01002 30.3 4.98002 30.34L4.94002 30.4C4.90002 30.45 4.87002 30.51 4.83002 30.56V30.57C4.79002 30.62 4.76002 30.68 4.72002 30.74L4.70002 30.78L4.61002 30.92L4.59002 30.96C4.56002 31.02 4.52002 31.07 4.49002 31.13L4.46002 31.18L4.39002 31.3L4.35002 31.37C4.32002 31.42 4.29002 31.48 4.25002 31.53L4.23002 31.56L4.15002 31.7L4.12002 31.76C4.09002 31.82 4.06002 31.87 4.03002 31.93V31.94C4.00002 32 3.96002 32.06 3.93002 32.12L3.91002 32.16L3.83002 32.31L3.81002 32.35L3.70002 32.52L3.67002 32.59L3.60002 32.73L3.58002 32.77C3.55002 32.83 3.52002 32.89 3.49002 32.95L3.46002 33L3.39002 33.14L3.37002 33.19C3.34002 33.25 3.31002 33.32 3.28002 33.38C1.58002 36.97 1.13002 39.67 0.850024 43.5C0.280024 47.36 -0.0199765 51.19 2.3504e-05 54.96C0.0100235 55.05 0.0300235 55.14 0.0500235 55.23V55.24C0.0700235 55.32 0.0900235 55.41 0.110024 55.49V55.5C0.130024 55.58 0.150024 55.66 0.170024 55.73L0.180024 55.75C0.200024 55.82 0.220024 55.9 0.250024 55.97L0.260024 55.99C0.280024 56.06 0.310024 56.12 0.330024 56.19L0.340024 56.22C0.360024 56.28 0.390024 56.34 0.420024 56.4L0.440024 56.44C0.470024 56.5 0.490023 56.55 0.520023 56.61C2.21002 59.93 6.93002 59.03 8.53002 56.33L8.54002 56.31L8.55002 56.29C8.57002 56.26 8.59002 56.23 8.60002 56.19C8.62002 56.16 8.63002 56.13 8.64002 56.1C8.65002 56.08 8.66002 56.05 8.67002 56.03C8.69002 55.99 8.71002 55.95 8.72002 55.92L8.74002 55.87C8.76002 55.82 8.78002 55.78 8.80002 55.73L8.81002 55.7C8.83002 55.65 8.85002 55.6 8.86002 55.54V55.53C8.88002 55.47 8.90002 55.41 8.91002 55.35V55.34C8.93002 55.28 8.94002 55.22 8.95002 55.16C8.96002 55.1 8.97002 55.03 8.98002 54.97L9.89002 43.13C10.03 41.34 10.15 40.13 10.87 38.43C11.21 37.63 11.62 36.94 12.1 36.38L12.17 39.55L12.58 58L6.64002 93.54C6.71002 100.5 16.08 100.46 17.1 94.72L22.48 63.02L27.74 94.23C29.95 102.02 39.07 99.11 38.2 93.18L36.64 81.26L32.54 57.8L32.86 39.18V39.54L32.87 39.04L36.91 44.62C37.71 45.73 38.89 46.41 40.14 46.62L49.65 48.45V63.73H41.41C40.37 63.73 39.5 64.6 39.5 65.64C39.5 66.68 40.37 67.55 41.41 67.55H79.85V76.09C79.62 76.16 79.41 76.32 79.21 76.49H79.18L67.26 87.8C66.49 88.5 66.46 89.71 67.19 90.48C67.89 91.25 69.1 91.28 69.87 90.55L79.82 81.11V89.72C79.82 90.76 80.69 91.63 81.73 91.63C82.77 91.63 83.64 90.76 83.64 89.72V81.48L93.22 90.56C93.96 91.3 95.16 91.26 95.9 90.49C96.64 89.75 96.6 88.55 95.83 87.81L83.91 76.48C83.81 76.41 83.74 76.35 83.64 76.28V67.54H120.97C122.01 67.54 122.88 66.67 122.88 65.63C122.88 64.59 122.01 63.72 120.97 63.72H112.63V16.49H120.77C121.81 16.49 122.68 15.62 122.68 14.58C122.68 13.54 121.81 12.67 120.77 12.67H83.37V7.11C83.37 6.07 82.5 5.2 81.46 5.2C80.42 5.2 79.55 6.07 79.55 7.11V12.67H41.42C40.38 12.67 39.51 13.54 39.51 14.58C39.51 15.62 40.38 16.49 41.42 16.49H49.66V38.23L43.88 37.12L35.78 25.93C35.04 24.91 33.99 24.25 32.85 23.99C31.06 23.3 29.05 22.96 26.76 22.96ZM54.72 39.21L66.36 27C66.83 26.51 67.61 26.49 68.11 26.96C68.6 27.43 68.62 28.21 68.15 28.71L56.96 40.44C58.16 41.58 58.77 43.28 58.44 45.03C57.98 47.45 55.85 49.13 53.47 49.11V63.74H108.84V16.49H53.47V38.97L54.45 39.16C54.54 39.17 54.63 39.19 54.72 39.21ZM22.49 0C28.35 0 33.11 4.75 33.11 10.62C33.11 16.48 28.36 21.24 22.49 21.24C16.63 21.24 11.87 16.49 11.87 10.62C11.87 4.75 16.62 0 22.49 0Z" fill="white"/>
</g>
<defs>
<clipPath id="clip0">
<rect width="122.88" height="98.94" fill="white"/>
</clipPath>
</defs>
</svg>
