<svg width="26" height="19" viewBox="0 0 26 19" fill="none" xmlns="http://www.w3.org/2000/svg">
<g clip-path="url(#clip0)">
<path fill-rule="evenodd" clip-rule="evenodd" d="M5.65586 4.40646C4.63912 4.40646 3.52513 4.25677 2.57814 4.59838V4.57535C2.3583 4.66364 2.14269 4.78455 1.93554 4.93232L1.9292 4.93808C1.73684 5.07626 1.55294 5.23939 1.38172 5.42364V5.42556C1.3627 5.44667 1.34367 5.46778 1.32465 5.48889C1.31619 5.49848 1.30774 5.50808 1.29717 5.5196L1.29505 5.52343C1.27392 5.54455 1.25489 5.56566 1.23798 5.58677L1.23587 5.58869C1.22741 5.59828 1.22107 5.60788 1.21262 5.61747L1.20839 5.62131V5.62323C1.19993 5.63283 1.19359 5.64242 1.18514 5.65202L1.17879 5.66162L1.15766 5.68848L1.15554 5.69232C1.14709 5.70192 1.13863 5.71343 1.13018 5.72303L1.12384 5.73071L1.10481 5.75374L1.09847 5.76141C1.09001 5.77101 1.08367 5.78061 1.07733 5.7902L1.07522 5.79212L1.07099 5.79788C1.06465 5.80555 1.05831 5.81515 1.05197 5.82283L1.04351 5.83434C1.03505 5.84394 1.02871 5.85545 1.02026 5.86505V5.86697C1.0118 5.87657 1.00546 5.88808 0.997006 5.8996L0.992778 5.90727L0.973754 5.93414L0.969526 5.94182C0.963185 5.95333 0.954729 5.96293 0.948388 5.97444L0.942046 5.98404L0.92725 6.00707L0.918794 6.0205C0.912453 6.0301 0.906112 6.04162 0.897656 6.05121L0.893429 6.05697L0.876518 6.08384L0.870177 6.09535C0.863835 6.10687 0.857494 6.11646 0.851152 6.12798V6.1299C0.844811 6.14141 0.836355 6.15293 0.830014 6.16444L0.825786 6.17212L0.808876 6.20091L0.804648 6.20859L0.781396 6.24121L0.775055 6.25465L0.760258 6.28151L0.75603 6.28919C0.749689 6.30071 0.743347 6.31222 0.737006 6.32374L0.730664 6.33333L0.715868 6.3602L0.71164 6.3698C0.705298 6.38131 0.698957 6.39475 0.692616 6.40626C0.333266 7.09525 0.238144 7.61343 0.178958 8.34848C0.0584701 9.08929 -0.00494468 9.82434 -0.000717033 10.5479C0.00139679 10.5652 0.00562443 10.5824 0.00985207 10.5997V10.6016C0.0140797 10.617 0.0183074 10.6342 0.0225351 10.6496V10.6515C0.0267627 10.6669 0.0309904 10.6822 0.035218 10.6957L0.0373319 10.6995C0.0415595 10.7129 0.0457871 10.7283 0.0521286 10.7417L0.0542424 10.7456C0.0584701 10.759 0.0648115 10.7705 0.0690392 10.7839L0.071153 10.7897C0.0753806 10.8012 0.0817221 10.8127 0.0880636 10.8242L0.0922912 10.8319C0.0986327 10.8434 0.10286 10.853 0.109202 10.8645C0.466437 11.5017 1.46416 11.329 1.80237 10.8108L1.80449 10.807L1.8066 10.8031C1.81083 10.7974 1.81505 10.7916 1.81717 10.7839C1.8214 10.7782 1.82351 10.7724 1.82562 10.7667C1.82774 10.7628 1.82985 10.7571 1.83197 10.7532C1.83619 10.7456 1.84042 10.7379 1.84253 10.7321L1.84676 10.7225C1.85099 10.7129 1.85522 10.7053 1.85944 10.6957L1.86156 10.6899C1.86579 10.6803 1.87001 10.6707 1.87213 10.6592V10.6573C1.87636 10.6458 1.88058 10.6342 1.8827 10.6227V10.6208C1.88692 10.6093 1.88904 10.5978 1.89115 10.5863C1.89327 10.5747 1.89538 10.5613 1.89749 10.5498L2.08985 8.27747C2.11944 7.93394 2.14481 7.70172 2.297 7.37545C2.36887 7.22192 2.45554 7.08949 2.557 6.98202L2.5718 7.5904L2.65847 11.1313L1.40286 17.9521C1.41766 19.2879 3.3983 19.2802 3.61391 18.1786L4.75115 12.0947L5.86302 18.0845C6.33017 19.5796 8.25798 19.0211 8.07408 17.883L7.74432 15.5954L6.87765 11.0929L6.94529 7.51939V7.58848L6.94741 7.49252L7.80139 8.56343C7.9705 8.77646 8.21993 8.90697 8.48416 8.94727L10.4944 9.29848V12.231H8.75261C8.53277 12.231 8.34887 12.398 8.34887 12.5976C8.34887 12.7972 8.53277 12.9641 8.75261 12.9641H16.8781V14.6031C16.8295 14.6166 16.7851 14.6473 16.7429 14.6799H16.7365L14.2168 16.8505C14.0541 16.9848 14.0477 17.2171 14.202 17.3648C14.35 17.5126 14.6058 17.5184 14.7685 17.3783L16.8718 15.5666V17.219C16.8718 17.4186 17.0557 17.5856 17.2755 17.5856C17.4954 17.5856 17.6793 17.4186 17.6793 17.219V15.6376L19.7043 17.3802C19.8607 17.5222 20.1144 17.5145 20.2708 17.3668C20.4272 17.2247 20.4188 16.9944 20.256 16.8524L17.7364 14.678C17.7152 14.6645 17.7004 14.653 17.6793 14.6396V12.9622H25.5702C25.79 12.9622 25.9739 12.7953 25.9739 12.5957C25.9739 12.3961 25.79 12.2291 25.5702 12.2291H23.8072V3.16475H25.5279C25.7477 3.16475 25.9316 2.99778 25.9316 2.79818C25.9316 2.59859 25.7477 2.43162 25.5279 2.43162H17.6222V1.36455C17.6222 1.16495 17.4383 0.99798 17.2185 0.99798C16.9986 0.99798 16.8147 1.16495 16.8147 1.36455V2.43162H8.75473C8.53489 2.43162 8.35099 2.59859 8.35099 2.79818C8.35099 2.99778 8.53489 3.16475 8.75473 3.16475H10.4965V7.33707L9.27473 7.12404L7.56253 4.97646C7.40611 4.78071 7.18416 4.65404 6.94318 4.60414C6.56481 4.47172 6.13993 4.40646 5.65586 4.40646ZM11.5661 7.52515L14.0266 5.18182C14.1259 5.08778 14.2908 5.08394 14.3965 5.17414C14.5001 5.26434 14.5043 5.41404 14.405 5.51L12.0396 7.76121C12.2933 7.98 12.4222 8.30626 12.3524 8.64212C12.2552 9.10656 11.805 9.42899 11.3019 9.42515V12.2329H23.0061V3.16475H11.3019V7.47909L11.509 7.51555C11.5281 7.51747 11.5471 7.52131 11.5661 7.52515ZM4.75326 0C5.99196 0 6.99814 0.911616 6.99814 2.03818C6.99814 3.16283 5.99407 4.07636 4.75326 4.07636C3.51456 4.07636 2.50838 3.16475 2.50838 2.03818C2.50838 0.911616 3.51245 0 4.75326 0Z" fill="white"/>
</g>
<defs>
<clipPath id="clip0">
<rect width="26" height="19" fill="white"/>
</clipPath>
</defs>
</svg>
