<svg width="27" height="27" viewBox="0 0 27 27" fill="none" xmlns="http://www.w3.org/2000/svg">
<circle cx="13.5" cy="13.5" r="13.5" fill="#FF7E7E"/>
<path fill-rule="evenodd" clip-rule="evenodd" d="M8.15894 17.5695L11.7284 14L8.15894 10.4305C7.94702 10.2186 7.94702 9.87093 8.15894 9.659L9.659 8.15894C9.87093 7.94702 10.2186 7.94702 10.4305 8.15894L14 11.7284L17.5695 8.15894C17.7814 7.94702 18.1291 7.94702 18.341 8.15894L19.8411 9.659C20.053 9.87093 20.053 10.2186 19.8411 10.4305L16.2716 14L19.8411 17.5695C20.053 17.7814 20.053 18.1291 19.8411 18.341L18.341 19.8411C18.1291 20.053 17.7814 20.053 17.5695 19.8411L14 16.2716L10.4305 19.8411C10.2186 20.053 9.87093 20.053 9.659 19.8411L8.15894 18.341C7.94702 18.1291 7.94702 17.7814 8.15894 17.5695Z" fill="white"/>
</svg>
