<svg width="24" height="24" viewBox="0 0 24 24" fill="none" xmlns="http://www.w3.org/2000/svg">
<path d="M1.71349 0H22.2863C22.7584 0 23.1869 0.192578 23.4971 0.502734C23.8074 0.812891 23.9998 1.2416 23.9998 1.71348V22.2863C23.9998 22.7582 23.8074 23.1867 23.4971 23.4971C23.1869 23.8072 22.7584 23.9998 22.2863 23.9998H1.71349C1.24161 23.9998 0.812897 23.8072 0.502738 23.4971C0.19258 23.1869 0 22.7582 0 22.2863V1.71348C0 1.24141 0.19258 0.812891 0.502738 0.502734C0.812897 0.192578 1.24161 0 1.71349 0ZM11.304 6.02578C11.304 5.64141 11.6157 5.32969 11.9999 5.32969C12.3845 5.32969 12.6958 5.64141 12.6958 6.02578V11.3039H17.974C18.3585 11.3039 18.6699 11.6156 18.6699 11.9998C18.6699 12.384 18.3584 12.6957 17.974 12.6957H12.696V17.9738C12.696 18.3584 12.3843 18.6697 12.0001 18.6697C11.6159 18.6697 11.3042 18.3582 11.3042 17.9738V12.6959H6.02583C5.64145 12.6959 5.32993 12.3844 5.32993 12C5.32993 11.6156 5.64165 11.3041 6.02583 11.3041H11.304V6.02578ZM22.2863 1.39238H1.71349C1.62579 1.39238 1.54572 1.42871 1.48712 1.48711C1.42853 1.5457 1.3922 1.62578 1.3922 1.71348V22.2863C1.3922 22.3738 1.42853 22.4541 1.48712 22.5127C1.54572 22.5711 1.62579 22.6074 1.71349 22.6074H22.2863C22.374 22.6074 22.4543 22.5709 22.5127 22.5127C22.5713 22.4541 22.6076 22.3738 22.6076 22.2863V1.71348C22.6076 1.62578 22.5711 1.5457 22.5127 1.48711C22.4545 1.42871 22.3742 1.39238 22.2863 1.39238Z" fill="white"/>
</svg>
