<svg width="16" height="16" viewBox="0 0 16 16" fill="none" xmlns="http://www.w3.org/2000/svg">
<path d="M6.45178 0.381409C8.2334 0.381409 9.84611 1.04928 11.0137 2.12913C12.1812 3.20899 12.9033 4.7007 12.9033 6.34852C12.9033 7.93038 12.2378 9.36813 11.1519 10.436C11.1716 10.4495 11.1907 10.4644 11.2087 10.481L15.8534 14.7709C16.0479 14.9498 16.049 15.241 15.8553 15.4211C15.6618 15.6011 15.3469 15.6019 15.1524 15.4229L10.5077 11.133C10.4782 11.1059 10.4532 11.0762 10.4326 11.0447C9.33591 11.8409 7.9538 12.3157 6.45165 12.3157C4.67003 12.3157 3.05705 11.6479 1.88951 10.568C0.722102 9.48817 0 7.99633 0 6.34852C0 4.7007 0.722102 3.20899 1.88964 2.12913C3.05718 1.0494 4.67016 0.381409 6.45178 0.381409ZM10.2924 2.79638C9.30948 1.88733 7.95166 1.32505 6.45178 1.32505C4.9519 1.32505 3.59395 1.88733 2.61108 2.79638C1.6282 3.70544 1.02026 4.96128 1.02026 6.34852C1.02026 7.73575 1.6282 8.99171 2.61108 9.90077C3.59382 10.8098 4.95176 11.3721 6.45178 11.3721C7.95166 11.3721 9.30948 10.8098 10.2924 9.90077C11.2752 8.99184 11.8832 7.73588 11.8832 6.34852C11.8832 4.96128 11.2752 3.70544 10.2924 2.79638Z" fill="#C1C1C1"/>
</svg>
