<svg width="16" height="16" viewBox="0 0 16 16" fill="none" xmlns="http://www.w3.org/2000/svg">
<g clip-path="url(#clip0)">
<path d="M0.185892 1.08284C-0.0616384 0.835319 -0.0616384 0.433887 0.185892 0.18623C0.433422 -0.0614258 0.834861 -0.0614258 1.08252 0.18623L8.00021 7.10381L14.9179 0.18623C15.1654 -0.0614258 15.5669 -0.0614258 15.8147 0.18623C16.0622 0.433756 16.0622 0.835319 15.8147 1.08284L8.89671 8.00029L15.8145 14.918C16.0621 15.1655 16.0621 15.567 15.8145 15.8146C15.5669 16.0623 15.1654 16.0623 14.9178 15.8146L8.00008 8.89704L1.08252 15.8146C0.834991 16.0623 0.433552 16.0623 0.185892 15.8146C-0.0616384 15.5671 -0.0616384 15.1657 0.185892 14.918L7.10358 8.00029L0.185892 1.08284Z" fill="white"/>
</g>
<defs>
<clipPath id="clip0">
<rect width="16" height="16" fill="white"/>
</clipPath>
</defs>
</svg>
