<svg width="22" height="22" viewBox="0 0 22 22" fill="none" xmlns="http://www.w3.org/2000/svg">
<path d="M1.5707 0H20.4291C20.8619 0 21.2547 0.17653 21.539 0.46084C21.8235 0.74515 21.9998 1.13813 21.9998 1.57069V20.4291C21.9998 20.8617 21.8235 21.2545 21.539 21.539C21.2547 21.8233 20.8619 21.9998 20.4291 21.9998H1.5707C1.13814 21.9998 0.745156 21.8233 0.460844 21.539C0.176531 21.2547 0 20.8617 0 20.4291V1.57069C0 1.13796 0.176531 0.74515 0.460844 0.46084C0.745156 0.17653 1.13814 0 1.5707 0ZM10.362 5.52363C10.362 5.17129 10.6477 4.88555 10.9999 4.88555C11.3524 4.88555 11.6378 5.17129 11.6378 5.52363V10.3619H16.4761C16.8287 10.3619 17.1141 10.6477 17.1141 10.9998C17.1141 11.352 16.8285 11.6377 16.4761 11.6377H11.638V16.476C11.638 16.8285 11.3523 17.1139 11.0001 17.1139C10.6479 17.1139 10.3622 16.8284 10.3622 16.476V11.6379H5.52368C5.17133 11.6379 4.88577 11.3523 4.88577 11C4.88577 10.6477 5.17151 10.3621 5.52368 10.3621H10.362V5.52363ZM20.4291 1.27635H1.5707C1.49031 1.27635 1.41691 1.30965 1.36319 1.36318C1.30948 1.41689 1.27618 1.4903 1.27618 1.57069V20.4291C1.27618 20.5093 1.30948 20.5829 1.36319 20.6366C1.41691 20.6902 1.49031 20.7235 1.5707 20.7235H20.4291C20.5095 20.7235 20.5831 20.69 20.6366 20.6366C20.6903 20.5829 20.7236 20.5093 20.7236 20.4291V1.57069C20.7236 1.4903 20.6902 1.41689 20.6366 1.36318C20.5833 1.30965 20.5097 1.27635 20.4291 1.27635Z" fill="#57B6FB"/>
</svg>
