<svg width="17" height="17" viewBox="0 0 17 17" fill="none" xmlns="http://www.w3.org/2000/svg">
<path d="M2.125 3.54167V13.4583C2.125 14.2375 2.75542 14.875 3.54167 14.875H13.4583C14.2375 14.875 14.875 14.2375 14.875 13.4583V3.54167C14.875 2.7625 14.2375 2.125 13.4583 2.125H3.54167C2.75542 2.125 2.125 2.7625 2.125 3.54167ZM10.625 6.375C10.625 7.55083 9.67583 8.5 8.5 8.5C7.32417 8.5 6.375 7.55083 6.375 6.375C6.375 5.19917 7.32417 4.25 8.5 4.25C9.67583 4.25 10.625 5.19917 10.625 6.375ZM4.25 12.0417C4.25 10.625 7.08333 9.84583 8.5 9.84583C9.91667 9.84583 12.75 10.625 12.75 12.0417V12.75H4.25V12.0417Z" fill="#5C5C5C"/>
</svg>
