<svg width="17" height="23" viewBox="0 0 17 23" fill="none" xmlns="http://www.w3.org/2000/svg">
<g clip-path="url(#clip0)">
<path d="M15.1325 12.0947H7.65694C7.33522 12.0947 7.07441 11.8283 7.07441 11.4998C7.07441 11.1711 7.33522 10.9048 7.65694 10.9048H15.1321L12.6907 8.07752C12.4786 7.83232 12.501 7.45778 12.7409 7.24103C12.981 7.0241 13.3477 7.04693 13.56 7.29213L16.8545 11.1073C17.0517 11.3349 17.0465 11.6743 16.8525 11.8953L13.5598 15.7077C13.3477 15.9531 12.9808 15.9759 12.7407 15.7588C12.5008 15.542 12.4784 15.1673 12.6905 14.9221L15.1325 12.0947ZM13.1131 18.648C13.1131 18.3193 13.3765 18.053 13.7014 18.053C14.0265 18.053 14.2899 18.3193 14.2899 18.648V21.3137C14.2899 21.777 14.1016 22.1989 13.7997 22.5042C13.4974 22.8096 13.0802 22.9998 12.6224 22.9998H1.66763C1.20949 22.9998 0.792071 22.81 0.489792 22.5046C0.188068 22.1995 0 21.7781 0 21.3137V1.68625C0 1.22206 0.187513 0.800358 0.489422 0.494889C0.791331 0.189608 1.20838 0 1.66763 0H12.6222C13.0811 0 13.498 0.190169 13.7999 0.495264C14.1022 0.80092 14.2897 1.22319 14.2897 1.68625V4.35181C14.2897 4.6803 14.0263 4.94665 13.7012 4.94665C13.3764 4.94665 13.113 4.6803 13.113 4.35181V1.68625C13.113 1.55112 13.0572 1.42702 12.9676 1.33643C12.8784 1.24621 12.7559 1.18987 12.6221 1.18987H1.66763C1.53324 1.18987 1.41051 1.24602 1.32148 1.33624C1.23207 1.42627 1.17672 1.55037 1.17672 1.68625V21.3137C1.17672 21.4493 1.23244 21.573 1.32166 21.6632C1.41125 21.7538 1.53398 21.8101 1.66763 21.8101H12.6222C12.7555 21.8101 12.8779 21.7536 12.9675 21.663C13.0572 21.5724 13.1131 21.4485 13.1131 21.3137V18.648Z" fill="white"/>
</g>
<defs>
<clipPath id="clip0">
<rect width="17" height="23" fill="white"/>
</clipPath>
</defs>
</svg>
