<svg width="25" height="23" viewBox="0 0 25 23" fill="none" xmlns="http://www.w3.org/2000/svg">
<g clip-path="url(#clip0)">
<path fill-rule="evenodd" clip-rule="evenodd" d="M22.8457 21.793V22.6151C22.8457 22.8276 22.6782 23 22.4722 23H2.42951C2.2229 23 2.05534 22.8276 2.05534 22.6151V10.813C1.63754 10.9786 1.24764 10.9806 0.922403 10.8686C0.668844 10.7808 0.455662 10.6232 0.297843 10.418C0.141426 10.2142 0.040371 9.96546 0.0104016 9.69316C-0.0358813 9.27006 0.0879826 8.78918 0.439275 8.33996V8.34064C0.456917 8.31779 0.477143 8.29706 0.500542 8.27891L12.2182 0.101217C12.3498 -0.0234649 12.5538 -0.0362217 12.6998 0.0811709L24.4408 8.2414H24.4402C24.4558 8.25408 24.4708 8.2682 24.4845 8.28293C24.9571 8.80664 25.0745 9.3867 24.9603 9.87753C24.9037 10.1189 24.7909 10.3368 24.6358 10.516C24.4799 10.6949 24.2831 10.8344 24.0575 10.9183C23.7003 11.051 23.2759 11.0464 22.8456 10.8371V21.793H22.8457ZM7.40068 18.6935H8.007C8.40332 18.0611 9.25332 17.7306 10.0141 17.4355C10.2019 17.3625 10.3843 17.2914 10.5506 17.2197C10.6386 17.1003 10.711 16.9716 10.7671 16.8341C10.8153 16.7154 10.8518 16.5907 10.876 16.4586C10.7397 16.3754 10.6093 16.2775 10.4855 16.1649C9.98093 15.7043 9.62823 15.328 9.40073 14.8935C9.16998 14.4517 9.07284 14.2182 9.08591 13.5377L9.12178 12.2334C9.12244 12.2119 9.12569 12.1911 9.13285 12.1717L8.68634 12.0135C8.62182 10.5188 9.43993 9.62156 10.4517 9.1715C10.8206 9.00794 10.2027 8.17906 11.0514 8.4714C12.185 8.86299 14.7 9.37136 15.2951 10.0768C15.7795 10.6501 15.799 10.9646 15.7873 11.719C15.784 11.9638 15.7462 12.179 15.6328 12.2575C15.5806 12.2937 15.5181 12.3072 15.4457 12.2984V13.6805C15.4457 14.6145 15.1211 15.1382 14.6224 15.7163C14.3414 16.0415 14.0057 16.3031 13.6419 16.4908C13.6635 16.6109 13.6941 16.7262 13.7326 16.8355C13.7775 16.9636 13.8342 17.0856 13.9027 17.201C14.0493 17.268 14.1927 17.329 14.3374 17.39C15.0481 17.6891 15.7703 17.9936 16.1445 18.6936H16.9652C17.254 18.6936 17.4907 18.937 17.4907 19.2342V22.0157H6.87547V19.2342C6.87547 18.9371 7.11205 18.6936 7.4009 18.6936L7.40068 18.6935ZM12.1347 20.7113C12.4828 20.7113 12.7651 21.0017 12.7651 21.3598C12.7651 21.7179 12.4829 22.0082 12.1347 22.0082C11.7866 22.0082 11.5043 21.7179 11.5043 21.3598C11.5043 21.0017 11.7866 20.7113 12.1347 20.7113ZM11.5415 16.7462C11.428 16.7153 11.3166 16.6771 11.2077 16.6302C11.1803 16.7502 11.1438 16.8662 11.0982 16.9768C11.0415 17.117 10.9691 17.2504 10.8831 17.3765C10.9783 17.4858 11.0865 17.579 11.2038 17.6567C11.5206 17.8673 11.9027 17.9665 12.2774 17.9565C12.6509 17.9471 13.0154 17.8304 13.3009 17.6078C13.4 17.5307 13.4893 17.4415 13.5655 17.3389C13.4984 17.2196 13.4417 17.0935 13.3954 16.9614C13.3596 16.8595 13.3302 16.7549 13.3067 16.647C12.9417 16.7811 12.5721 16.8481 12.2097 16.8427C11.9828 16.8387 11.7592 16.8072 11.5415 16.7462ZM11.1699 16.2016C11.2878 16.2653 11.4085 16.3176 11.5317 16.3586C11.7624 16.433 12.003 16.4685 12.2455 16.4685V16.4692C12.6295 16.4692 13.0186 16.3793 13.3811 16.2097C13.7442 16.04 14.0793 15.7906 14.3543 15.4721C14.7976 14.9578 15.0858 14.5178 15.0858 13.6803V12.6402L15.0864 12.6395C15.0825 12.5168 15.0662 12.4028 15.0349 12.3003C15.0049 12.2016 14.9619 12.1144 14.9039 12.0393C14.6842 11.7564 14.475 11.7598 14.1777 11.7604H14.0858C12.9092 11.7557 12.1373 11.7169 11.5115 11.6297C10.9346 11.5492 10.4816 11.4292 9.95421 11.2596C9.90468 11.3729 9.84666 11.4842 9.77889 11.5928C9.69282 11.7309 9.5931 11.8623 9.47839 11.9871L9.44384 13.5427C9.4321 14.1564 9.51618 14.3354 9.7163 14.7183C9.92033 15.1079 10.249 15.4566 10.7228 15.8891C10.848 16.0031 10.9822 16.0996 11.1224 16.1788C11.1393 16.1842 11.1556 16.1915 11.17 16.2015L11.1699 16.2016ZM13.7122 13.0204C13.9266 13.0204 14.1 13.1988 14.1 13.4187C14.1 13.6386 13.926 13.817 13.7122 13.817C13.4984 13.817 13.325 13.6386 13.325 13.4187C13.325 13.1988 13.4984 13.0204 13.7122 13.0204ZM10.7898 13.0204C11.0042 13.0204 11.1776 13.1988 11.1776 13.4187C11.1776 13.6386 11.0042 13.817 10.7898 13.817C10.576 13.817 10.4026 13.6386 10.4026 13.4187C10.4026 13.1988 10.576 13.0204 10.7898 13.0204ZM11.4587 15.0758C11.3759 15.0201 11.3524 14.9061 11.4065 14.8209C11.46 14.7358 11.5715 14.711 11.6542 14.7666C11.8582 14.9034 12.0544 14.9772 12.241 14.9799C12.4215 14.9819 12.6001 14.9161 12.7768 14.7754C12.855 14.7123 12.9678 14.7271 13.0291 14.8076C13.0897 14.888 13.0754 15.0047 12.9971 15.067C12.754 15.2615 12.4998 15.3513 12.2364 15.348C11.9789 15.344 11.7195 15.2501 11.4587 15.0758ZM8.46393 18.6934H15.7168C15.3719 18.2241 14.7819 17.9753 14.2012 17.7305C14.0799 17.6789 13.9587 17.6279 13.8433 17.577C13.7468 17.7117 13.6289 17.8298 13.4952 17.9296C13.1745 18.169 12.7599 18.3065 12.3323 18.328C11.9072 18.3494 11.4659 18.2555 11.0891 18.0329C10.9021 17.9216 10.7306 17.7794 10.5853 17.6038C10.4438 17.6628 10.2939 17.7211 10.1407 17.7801C9.52659 18.0188 8.8494 18.2817 8.46408 18.6934H8.46393ZM19.4064 22.0329H21.9063V10.3837C21.9063 10.3589 21.909 10.3341 21.9135 10.31L12.5376 3.88785L2.98291 10.314C2.99074 10.3455 2.99531 10.3783 2.99531 10.4126V22.0329H19.4063H19.4064Z" fill="#151323" fill-opacity="0.6"/>
</g>
<defs>
<clipPath id="clip0">
<rect width="25" height="23" fill="white"/>
</clipPath>
</defs>
</svg>
