<svg width="21" height="23" viewBox="0 0 21 23" fill="none" xmlns="http://www.w3.org/2000/svg">
<path d="M13.6063 20.3246C13.538 20.6999 13.4174 21.0443 13.2437 21.358C13.0642 21.6816 12.8294 21.9717 12.5392 22.228C12.2491 22.4838 11.9325 22.6766 11.5912 22.8056C11.2492 22.9346 10.8853 22.9993 10.501 22.9993C10.1165 22.9993 9.75274 22.9346 9.41055 22.8056C9.06908 22.6768 8.75292 22.4838 8.46277 22.228C8.17244 21.9717 7.93756 21.6814 7.75812 21.358C7.57904 21.0345 7.45631 20.6785 7.38956 20.29C7.35708 20.1 7.47838 19.918 7.66051 19.884C7.66625 19.883 7.71954 19.8776 7.71954 19.8772H13.2823C13.4683 19.8772 13.6191 20.0345 13.6191 20.2282C13.6189 20.2617 13.6148 20.2939 13.6063 20.3246ZM12.2731 1.28501C12.546 1.35932 12.8111 1.44954 13.068 1.55529C13.4464 1.71102 13.81 1.89895 14.1583 2.11813C14.1719 2.12692 14.1852 2.13628 14.1983 2.14583C14.5322 2.35996 14.8428 2.59523 15.1294 2.85185C15.429 3.12026 15.7084 3.41693 15.9673 3.74168L15.9695 3.74411H15.9699C16.2229 4.06381 16.4493 4.40503 16.6494 4.76646C16.8502 5.12976 17.0219 5.50804 17.1638 5.89999L17.1645 5.8998C17.3113 6.30297 17.4211 6.71626 17.4936 7.13927C17.5665 7.56434 17.6026 8.00008 17.6026 8.4465C17.6026 9.32884 17.6026 9.80482 17.6029 9.86266C17.6047 10.3151 17.607 10.7572 17.6103 11.1888V11.1933C17.6117 11.5832 17.6363 11.9755 17.6828 12.3686C17.7287 12.7573 17.796 13.1328 17.8828 13.4942L17.8835 13.494C17.9708 13.8504 18.0886 14.1931 18.2365 14.5222C18.3883 14.861 18.5729 15.1923 18.7902 15.5163L18.7913 15.5155C19.0057 15.8332 19.2742 16.1469 19.5966 16.4564C19.9295 16.7763 20.3162 17.0897 20.756 17.3966C21.0083 17.5729 21.0759 17.9293 20.9067 18.1927C20.8008 18.3576 20.627 18.4469 20.4497 18.447V18.4489H15.4753H10.501H5.52629H0.551947C0.247084 18.4489 0 18.1912 0 17.8734C0 17.6643 0.106765 17.4814 0.266463 17.3805C0.71344 17.0649 1.09725 16.7527 1.41773 16.4432C1.73659 16.1351 2.00359 15.8199 2.21837 15.497C2.22483 15.4874 2.23129 15.4783 2.23811 15.4693C2.44572 15.1522 2.62336 14.8291 2.7705 14.501C2.92015 14.1673 3.04019 13.8231 3.13009 13.4684C3.13189 13.4609 3.13386 13.4536 3.13601 13.4463C3.22125 13.1019 3.2862 12.739 3.33124 12.3584C3.37646 11.9753 3.39907 11.5796 3.39907 11.1723V8.4465C3.39907 8.00851 3.43675 7.5722 3.51193 7.13871C3.58712 6.70577 3.69783 6.29006 3.84371 5.89306C3.98888 5.49606 4.16293 5.11554 4.36497 4.75205C4.56576 4.39099 4.79508 4.04771 5.05186 3.72334L5.05491 3.71959L5.05419 3.71884C5.31043 3.39934 5.5916 3.10266 5.89772 2.82995C6.19971 2.56098 6.52575 2.31653 6.87565 2.09735C7.23004 1.87667 7.59609 1.69137 7.97524 1.54126C8.23883 1.43681 8.50978 1.34921 8.78791 1.27828C8.88283 0.931815 9.04576 0.651428 9.27633 0.436739C9.59465 0.140254 10.0144 -0.00518032 10.5351 -0.000500956C11.051 0.00417841 11.4671 0.153169 11.7825 0.447033C12.0138 0.662471 12.1775 0.941735 12.2731 1.28501ZM12.6671 2.62556C12.3619 2.50015 12.0506 2.40132 11.7335 2.33038C11.4893 2.29744 11.2882 2.09585 11.257 1.82932C11.2272 1.57832 11.1581 1.40237 11.0499 1.30167C10.9413 1.20041 10.7667 1.14875 10.5265 1.1465C10.2878 1.14426 10.1154 1.19255 10.0093 1.29138C9.90167 1.3917 9.83348 1.56933 9.80477 1.82482H9.80424C9.77768 2.06871 9.60201 2.27666 9.35852 2.32402C9.01489 2.39196 8.68348 2.48929 8.36318 2.6162C8.04343 2.74273 7.73605 2.89827 7.44034 3.08226C7.14588 3.26663 6.87027 3.47364 6.61332 3.70237C6.35672 3.93091 6.11861 4.18266 5.89916 4.45631L5.89844 4.45575C5.68419 4.72696 5.4904 5.01783 5.31814 5.32779C5.14857 5.6327 5.00036 5.95782 4.8744 6.30241C4.74843 6.64494 4.65512 6.99159 4.59447 7.34123C4.53347 7.692 4.50314 8.06073 4.50314 8.44668V11.1727C4.50314 11.6242 4.47748 12.0663 4.42652 12.4985C4.37736 12.9147 4.30217 13.3273 4.20115 13.7347C4.19935 13.7435 4.19738 13.7525 4.19523 13.7613C4.0899 14.1767 3.94689 14.5853 3.76655 14.9871C3.5925 15.3751 3.38525 15.7525 3.14552 16.1188C3.13871 16.1308 3.13153 16.1425 3.12381 16.1542C2.87117 16.5334 2.55105 16.9102 2.16347 17.2845L2.14947 17.2978H5.52629H10.501H15.4753H18.8464C18.4676 16.9335 18.1489 16.5599 17.8904 16.1768L17.8911 16.1761L17.8904 16.1746C17.6363 15.7957 17.4193 15.4068 17.2406 15.0083C17.058 14.6017 16.916 14.1914 16.8145 13.7776L16.8148 13.7774L16.8145 13.7754C16.7149 13.3632 16.6388 12.9404 16.5877 12.508C16.539 12.0945 16.513 11.6582 16.5109 11.1993V11.198C16.5076 10.7716 16.5053 10.3265 16.5035 9.86285C16.5003 9.00484 16.499 8.53653 16.499 8.44668C16.499 8.06784 16.4685 7.69948 16.4071 7.34198C16.3461 6.98579 16.255 6.64139 16.1342 6.30934L16.1349 6.30915L16.1342 6.30709C16.0102 5.96475 15.8643 5.64131 15.6966 5.3379C15.529 5.03524 15.337 4.74662 15.1204 4.47278L15.1208 4.47259C14.906 4.20344 14.6704 3.95412 14.414 3.72446C14.1654 3.50209 13.9029 3.30219 13.6257 3.12419C13.6135 3.11764 13.6011 3.11071 13.5893 3.10304C13.2902 2.91512 12.983 2.75546 12.6671 2.62556Z" fill="#151323" fill-opacity="0.6"/>
</svg>
