<svg width="27" height="24" viewBox="0 0 27 24" fill="none" xmlns="http://www.w3.org/2000/svg">
<path fill-rule="evenodd" clip-rule="evenodd" d="M7.18902 6.93418H10.8291V0H16.0372V6.93397H19.8113L13.505 13.482L7.18902 6.93418ZM24.9849 6.96355L26.6841 14.3649C26.6887 14.3802 26.6916 14.3964 26.6938 14.413C26.8428 15.6507 26.9524 16.7295 26.9878 17.6823C27.0238 18.6431 26.9827 19.4651 26.8283 20.1756C26.8252 20.1892 26.8217 20.2022 26.8168 20.2151C26.6747 21.8491 25.2693 23.1432 23.5714 23.1432H3.32964C1.62979 23.1432 0.223059 21.8461 0.0837485 20.2093C0.0791341 20.189 0.076717 20.1683 0.0762776 20.1467L0.0736408 20.0316L0.0732013 20.0145C0.0663896 19.745 0.0565016 19.4476 0.0461742 19.1377C0.00640261 17.9481 -0.0395215 16.5731 0.0589187 15.3825L0.055403 15.387L0.0758381 15.1944C0.0817709 15.1309 0.0888023 15.0683 0.0958337 15.0061L1.79568 6.96377H4.03981L3.75482 15.904H23.1467L22.9601 6.96377H24.9849V6.96355ZM20.6375 18.276C21.351 18.276 21.9293 18.8446 21.9293 19.5456C21.9293 20.2469 21.351 20.8153 20.6375 20.8153C19.9241 20.8153 19.3457 20.2469 19.3457 19.5456C19.3457 18.8446 19.9241 18.276 20.6375 18.276ZM3.7913 18.5602H8.79746V20.3078H3.7913V18.5602Z" fill="#151323" fill-opacity="0.6"/>
</svg>
