<svg width="30" height="23" viewBox="0 0 30 23" fill="none" xmlns="http://www.w3.org/2000/svg">
<path d="M27.3753 13.2263C27.2544 13.1426 27.1255 13.1132 26.9859 13.1373C26.8462 13.1613 26.7334 13.2323 26.6502 13.3511L26.1939 13.9882C26.0291 13.9192 25.8577 13.8636 25.6807 13.8182C25.5037 13.7727 25.3252 13.7376 25.1465 13.7119L24.9988 12.8775C24.9739 12.7366 24.9041 12.6267 24.7876 12.5456C24.6709 12.4648 24.542 12.4376 24.3992 12.4622L23.3362 12.6447C23.2003 12.6683 23.0904 12.7366 23.0049 12.852C22.9214 12.9672 22.8917 13.0945 22.9168 13.2352L23.0521 13.9993C22.8816 14.071 22.7181 14.1523 22.564 14.2444C22.4078 14.3365 22.262 14.4358 22.1265 14.5424L21.4095 14.0534C21.296 13.9702 21.1702 13.9387 21.0289 13.9632C20.8895 13.987 20.7784 14.0592 20.6932 14.1765L20.0789 15.0393C19.994 15.1583 19.9644 15.2853 19.9889 15.4226C20.0133 15.5602 20.0853 15.6716 20.2056 15.7536L20.8526 16.2031C20.7825 16.3655 20.7262 16.5343 20.6798 16.7087C20.6336 16.883 20.5982 17.0589 20.5719 17.2349L19.7249 17.3804C19.5821 17.405 19.4703 17.4735 19.3883 17.5885C19.3062 17.7034 19.2784 17.8304 19.3033 17.9711L19.4889 19.0183C19.5125 19.1523 19.5819 19.2605 19.6991 19.3447C19.816 19.4269 19.9452 19.4563 20.0882 19.4315L20.8636 19.2983C20.9364 19.4661 21.0189 19.627 21.1124 19.7791C21.2061 19.933 21.3077 20.0799 21.4168 20.2202L20.9185 20.9164C20.8341 21.0283 20.8023 21.1521 20.827 21.2914C20.8514 21.4287 20.9244 21.5382 21.0435 21.6221L21.9212 22.2373C22.0408 22.3141 22.1693 22.34 22.3087 22.316C22.4481 22.2919 22.5618 22.2246 22.6463 22.1127L23.1009 21.465C23.2654 21.5341 23.4368 21.5896 23.6141 21.6351C23.7908 21.6808 23.9693 21.7157 24.1482 21.7414L24.2957 22.576C24.3206 22.7167 24.3904 22.8268 24.5069 22.9076C24.6236 22.9882 24.7525 23.0159 24.8953 22.9913L25.9583 22.8086C26.0943 22.7852 26.2041 22.7167 26.2896 22.6015C26.3733 22.4863 26.4029 22.359 26.3777 22.2181L26.2425 21.454C26.4129 21.3823 26.5764 21.3013 26.7307 21.2091C26.8867 21.1168 27.0359 21.0167 27.1785 20.9092L27.885 21.4001C27.9988 21.4833 28.1262 21.5144 28.2691 21.4896C28.4138 21.4646 28.523 21.3931 28.6013 21.2767L29.2258 20.4123C29.3035 20.2945 29.3298 20.168 29.3057 20.0306C29.281 19.8933 29.2127 19.7812 29.0994 19.698L28.4419 19.2504C28.512 19.0878 28.5684 18.919 28.6145 18.7446C28.6607 18.5705 28.6961 18.3944 28.7224 18.2184L29.5693 18.0731C29.7122 18.0483 29.824 17.9798 29.906 17.8648C29.9883 17.7498 30.0159 17.6231 29.991 17.4822L29.8057 16.435C29.7817 16.301 29.7124 16.1925 29.5952 16.1086C29.4783 16.0259 29.3491 15.997 29.2063 16.0215L28.4307 16.1548C28.3591 15.9936 28.2769 15.8344 28.1829 15.679C28.0884 15.522 27.9873 15.3765 27.8794 15.243L28.3757 14.5368C28.4602 14.4248 28.492 14.3009 28.4673 14.1616C28.4429 14.0243 28.3699 13.9149 28.2507 13.8309L27.3753 13.2263ZM24.2869 15.693C24.5701 15.6442 24.8472 15.6507 25.1199 15.7127C25.3909 15.7767 25.6363 15.8835 25.855 16.0335C26.0725 16.1856 26.2576 16.3768 26.4104 16.6064C26.5618 16.8383 26.6619 17.0928 26.7112 17.372C26.7608 17.6512 26.7539 17.9242 26.6912 18.1926C26.6262 18.4598 26.5176 18.7011 26.365 18.9168C26.211 19.1314 26.0171 19.3134 25.7837 19.464C25.5486 19.6131 25.2903 19.7117 25.0069 19.7605C24.7234 19.8091 24.4463 19.8026 24.1739 19.7406C23.9026 19.6766 23.6575 19.5698 23.4388 19.4195C23.221 19.2675 23.0362 19.0765 22.8834 18.8468C22.732 18.615 22.6319 18.3605 22.5823 18.0813C22.533 17.802 22.5396 17.5291 22.6026 17.2606C22.6675 16.9934 22.7759 16.752 22.9285 16.5362C23.0826 16.3222 23.2767 16.1399 23.5098 15.9893C23.7454 15.8402 24.0035 15.7416 24.2869 15.693ZM16.1163 3.26039C16.0724 3.21686 16.0314 3.18752 15.9938 3.17188C15.9581 3.15697 15.9132 3.14976 15.8592 3.14976C15.8043 3.14976 15.7587 3.15745 15.7218 3.1726C15.6827 3.18872 15.6434 3.21662 15.6044 3.25606L15.5997 3.26039L14.5812 4.26068C14.38 4.45791 14.0687 4.47955 13.8434 4.3261C13.7289 4.25371 13.6061 4.183 13.4762 4.11373C13.3346 4.03845 13.1986 3.97183 13.0673 3.91266C12.9289 3.85037 12.7868 3.79144 12.6417 3.73589C12.515 3.6873 12.3686 3.63607 12.2042 3.58292C11.9599 3.50355 11.8046 3.27963 11.8048 3.03912H11.8046V1.50032C11.8046 1.44428 11.7963 1.39618 11.7797 1.35625C11.7638 1.31753 11.7379 1.28097 11.7028 1.24586L11.7018 1.24682C11.6649 1.21074 11.6278 1.18501 11.5907 1.17009C11.5502 1.15374 11.5014 1.1458 11.4445 1.1458H9.48479C9.43303 1.1458 9.38908 1.15302 9.35295 1.16793C9.31242 1.18429 9.27092 1.21291 9.2282 1.25355C9.19353 1.28795 9.16814 1.32354 9.15251 1.36034C9.13616 1.39882 9.12786 1.44524 9.12786 1.49984V2.90828C9.12786 3.19016 8.92131 3.42442 8.6491 3.47228C8.4948 3.5086 8.35467 3.5454 8.23065 3.58292C8.09027 3.62525 7.94818 3.67383 7.80438 3.72891C7.66864 3.78038 7.52972 3.83858 7.38788 3.90304C7.24555 3.96798 7.11444 4.03244 6.99555 4.09641C6.76606 4.21956 6.48896 4.1741 6.31196 4.00213L6.31172 4.00237L5.1838 2.90732C5.17916 2.90275 5.17476 2.89842 5.17037 2.89385H5.17012C5.13472 2.85705 5.09932 2.8306 5.06392 2.81544C5.03145 2.80149 4.98971 2.79428 4.93819 2.79428C4.88692 2.79428 4.84298 2.80221 4.80587 2.81761C4.76266 2.83565 4.72018 2.86499 4.67867 2.90491L3.30906 4.25732L3.30808 4.25828L3.30906 4.25948C3.26511 4.30277 3.23533 4.34294 3.21946 4.37998C3.20432 4.41509 3.197 4.45935 3.197 4.5125C3.197 4.56638 3.20456 4.61159 3.22019 4.64791C3.23679 4.68639 3.26487 4.72511 3.3049 4.7636L3.3093 4.76817L4.32467 5.77159C4.52487 5.97001 4.54684 6.27642 4.39108 6.49866C4.31759 6.61122 4.24582 6.73219 4.1755 6.86039C4.09909 6.99964 4.03146 7.13361 3.9714 7.26301C3.90793 7.39962 3.84811 7.5396 3.79196 7.68246C3.74265 7.80753 3.69064 7.95184 3.63645 8.11346C3.55588 8.35421 3.32859 8.50718 3.08445 8.50718V8.50742H1.52318C1.46605 8.50742 1.41722 8.5156 1.37694 8.53171C1.33739 8.54758 1.30053 8.57236 1.2661 8.60651L1.26391 8.60868C1.22948 8.64259 1.20409 8.67891 1.18798 8.71787C1.17162 8.75779 1.16332 8.8059 1.16332 8.86194V10.7928C1.16332 10.8435 1.17089 10.8868 1.18578 10.9226C1.20238 10.9623 1.23144 11.0032 1.27294 11.0456L1.27343 11.046C1.30834 11.0799 1.34447 11.1047 1.38134 11.1199C1.4204 11.1357 1.46752 11.1439 1.52318 11.1439H2.95261C3.23874 11.1439 3.47653 11.3476 3.52512 11.6158C3.56174 11.7671 3.59885 11.9042 3.63693 12.0261L3.63742 12.0259C3.68259 12.1712 3.7319 12.3119 3.78561 12.448C3.83737 12.5803 3.89719 12.7202 3.96457 12.8677C4.03415 13.0192 4.10055 13.1544 4.1633 13.2729C4.28366 13.5 4.23361 13.7701 4.05832 13.9418L4.0588 13.942L2.947 15.0342L2.93772 15.0431H2.93796C2.90061 15.0782 2.87376 15.1129 2.85838 15.148C2.84422 15.18 2.83689 15.2211 2.83689 15.2718C2.83689 15.3221 2.84495 15.3656 2.86057 15.402C2.87913 15.4453 2.90964 15.4876 2.95139 15.5294L4.31076 16.8842C4.35104 16.9206 4.39181 16.947 4.43307 16.9629C4.47482 16.979 4.52438 16.9874 4.58126 16.9874C4.63888 16.9874 4.68917 16.9792 4.73214 16.9624C4.77242 16.9468 4.811 16.9222 4.84737 16.8886L5.85444 15.8808C6.05488 15.68 6.36909 15.6559 6.59687 15.8108C6.71113 15.883 6.83417 15.9539 6.9643 16.0232C7.1059 16.0985 7.24188 16.1651 7.37299 16.2243C7.51166 16.2868 7.65375 16.3457 7.79876 16.4011C7.92547 16.4496 8.0722 16.5009 8.23626 16.554C8.48064 16.6334 8.63592 16.8575 8.63592 17.0981H8.63616V18.6364C8.63616 18.6922 8.64446 18.7405 8.66106 18.7804C8.67718 18.8194 8.70232 18.8557 8.73674 18.8896L8.73772 18.8908L8.73894 18.8896C8.80779 18.9575 8.89299 18.9909 8.99602 18.9909H10.9557C11.0072 18.9909 11.0514 18.9837 11.0876 18.9688C11.1278 18.9524 11.1693 18.9235 11.2123 18.8829C11.247 18.8483 11.2721 18.8127 11.2878 18.7761C11.3041 18.7376 11.3124 18.691 11.3124 18.6366V17.2282C11.3124 16.9461 11.5192 16.7118 11.7912 16.6639C11.9455 16.6279 12.0856 16.5908 12.2096 16.5533C12.35 16.511 12.4921 16.4624 12.6359 16.4075C12.7702 16.3566 12.9122 16.2976 13.0619 16.2312C13.2157 16.1627 13.3532 16.0973 13.4733 16.0357C13.7037 15.9171 13.9779 15.9664 14.1522 16.1391L14.1525 16.1387L15.2611 17.2339L15.2699 17.2431L15.2701 17.2428C15.306 17.2801 15.3414 17.3066 15.3761 17.3213C15.4091 17.3354 15.453 17.3424 15.5087 17.3424C15.5624 17.3424 15.6073 17.3345 15.6439 17.3188C15.6815 17.303 15.7169 17.2775 15.7504 17.2428C15.7577 17.2354 15.7653 17.2279 15.7728 17.2207L17.1395 15.8902C17.1761 15.8508 17.203 15.8106 17.2191 15.7697C17.2355 15.7286 17.244 15.68 17.244 15.624C17.244 15.567 17.2355 15.5174 17.2186 15.4753C17.2027 15.4354 17.1778 15.3976 17.1439 15.3618L16.1207 14.3694C15.9169 14.172 15.8924 13.8622 16.0497 13.638C16.1232 13.5252 16.1949 13.4043 16.2652 13.2763C16.3417 13.1368 16.4093 13.0028 16.4693 12.8732C16.5328 12.7368 16.5926 12.5969 16.6488 12.454C16.6981 12.3292 16.7501 12.1846 16.8043 12.023C16.8849 11.782 17.1124 11.6293 17.3565 11.6293V11.629H18.9178C18.9749 11.629 19.0238 11.6211 19.0643 11.6045C19.1038 11.5889 19.1407 11.5639 19.1751 11.5299L19.1764 11.529L19.1751 11.5278C19.244 11.46 19.2779 11.3758 19.2779 11.2745V9.34392C19.2779 9.29293 19.2704 9.24964 19.2555 9.21405C19.2389 9.17436 19.2096 9.13347 19.1683 9.09114L19.1678 9.09042C19.1329 9.05651 19.097 9.03198 19.0599 9.01658C19.0211 9.00047 18.9737 8.99253 18.9181 8.99253H17.4886C17.1991 8.99253 16.9591 8.78401 16.9144 8.51127C16.8819 8.38428 16.8453 8.25464 16.8038 8.1226C16.7621 7.99032 16.7123 7.84817 16.6532 7.69593C16.6495 7.68631 16.6461 7.67669 16.6429 7.66707C16.589 7.52805 16.5343 7.39841 16.4786 7.2784C16.4169 7.14515 16.3514 7.01624 16.2823 6.89165C16.1573 6.66557 16.2037 6.39259 16.378 6.21822H16.3778L17.4896 5.10705C17.4942 5.10248 17.4986 5.09815 17.5035 5.09382L17.5033 5.09358C17.5406 5.05871 17.5675 5.02383 17.5829 4.98896C17.597 4.95697 17.6043 4.91584 17.6043 4.86509C17.6043 4.81459 17.5963 4.77129 17.5804 4.73474C17.5621 4.69241 17.5326 4.65056 17.4918 4.60943L16.119 3.26039L16.1178 3.25919L16.1163 3.26039ZM16.4437 2.11964C16.6283 2.1966 16.7933 2.30652 16.9388 2.44986L16.9376 2.45107L18.3116 3.80155L18.3163 3.80612C18.4608 3.9509 18.5719 4.11133 18.6478 4.28714C18.7267 4.46993 18.7669 4.66234 18.7669 4.86509C18.7669 5.07073 18.7259 5.2641 18.6454 5.44569C18.5667 5.62343 18.4527 5.78073 18.305 5.91926L17.4962 6.72738C17.5084 6.75264 17.5204 6.77837 17.5321 6.80387C17.6031 6.95755 17.6683 7.11004 17.7272 7.26156C17.7311 7.27022 17.7347 7.27936 17.7384 7.2885C17.7982 7.44291 17.8558 7.60958 17.9117 7.78684L17.9303 7.84649H18.9173C19.1256 7.84649 19.3206 7.88449 19.5045 7.96025C19.6849 8.03481 19.8473 8.14376 19.9923 8.28735L20.0037 8.29865C20.1456 8.4432 20.253 8.60338 20.3272 8.77968C20.4029 8.96006 20.4405 9.1479 20.4405 9.34392V11.2748C20.4405 11.6925 20.2943 12.0451 19.9969 12.3381L19.9959 12.3369C19.8475 12.4829 19.6825 12.5923 19.4998 12.6654C19.318 12.7388 19.1241 12.7748 18.9173 12.7748H17.766C17.7545 12.8047 17.7425 12.835 17.7303 12.8655C17.6671 13.0259 17.5982 13.1866 17.5235 13.3477C17.4457 13.5156 17.3668 13.6732 17.2875 13.8177C17.2782 13.8348 17.2687 13.8523 17.2586 13.8697L17.9591 14.5486C17.9669 14.5558 17.9745 14.5635 17.9823 14.5712C18.1229 14.7175 18.2289 14.8803 18.3001 15.0585C18.3717 15.2372 18.4071 15.426 18.4071 15.6237C18.4071 15.8205 18.3714 16.0081 18.3004 16.1858C18.2296 16.3633 18.1251 16.5249 17.9867 16.6716L17.9864 16.6714C17.9808 16.6774 17.9747 16.6837 17.9686 16.6894L16.589 18.0329C16.4462 18.1806 16.2845 18.2939 16.1031 18.3709C15.9198 18.4485 15.7218 18.4882 15.5089 18.4882C15.3007 18.4882 15.1039 18.4478 14.9176 18.3684C14.733 18.29 14.5707 18.1768 14.4298 18.0305L13.6251 17.2354C13.5961 17.2489 13.5675 17.2616 13.5394 17.2741C13.3903 17.3403 13.2287 17.4069 13.0543 17.473C12.893 17.5348 12.7233 17.5923 12.5463 17.6457C12.5226 17.6529 12.4992 17.6601 12.4757 17.6669V18.6369C12.4757 18.8418 12.4372 19.0342 12.3603 19.2148C12.2846 19.3928 12.1737 19.5527 12.028 19.6956L12.0165 19.7069C11.8698 19.8464 11.7072 19.9525 11.5285 20.0253C11.3454 20.1001 11.1549 20.1372 10.9557 20.1372H8.99651C8.57244 20.1372 8.21429 19.9929 7.91693 19.7004L7.9179 19.6992C7.76971 19.553 7.65863 19.3904 7.58441 19.2105C7.51019 19.0313 7.47333 18.8403 7.47333 18.6369V17.5021C7.44305 17.4908 7.41254 17.479 7.38129 17.4672C7.21869 17.4047 7.05561 17.3369 6.89228 17.2633C6.72163 17.1866 6.56196 17.1089 6.41499 17.0307C6.39741 17.0213 6.37983 17.012 6.3625 17.0023L5.67305 17.6921C5.66573 17.7001 5.65791 17.7075 5.6501 17.7152C5.50166 17.8537 5.33614 17.9581 5.15548 18.0284C4.97408 18.0988 4.78243 18.1337 4.58199 18.1337C4.3818 18.1337 4.19162 18.0988 4.0112 18.0288C3.83102 17.9591 3.66696 17.8559 3.51828 17.7195L3.51853 17.7193C3.51218 17.7138 3.50608 17.7078 3.49997 17.7017L2.12474 16.3315C1.98021 16.1863 1.86937 16.0261 1.7932 15.8503C1.7141 15.6677 1.67406 15.4751 1.67406 15.2726C1.67406 15.0669 1.71507 14.8736 1.79564 14.6922C1.87498 14.5133 1.98973 14.3552 2.13865 14.216L2.94578 13.423C2.93211 13.3946 2.91917 13.3665 2.90647 13.3386C2.83909 13.1916 2.77171 13.0324 2.70457 12.8609C2.63938 12.6962 2.58128 12.53 2.52903 12.3626L2.52952 12.3624L2.52903 12.3604L2.50779 12.2909H1.52318C1.31517 12.2909 1.11986 12.2532 0.936272 12.1774C0.755609 12.1028 0.593257 11.9937 0.448239 11.8503L0.436764 11.8388C0.294919 11.6942 0.187498 11.534 0.113524 11.358C0.0375974 11.1774 0 10.9893 0 10.7935V8.86266C0 8.65918 0.0368649 8.46822 0.111083 8.28903C0.185301 8.10985 0.295652 7.94775 0.443112 7.802L0.4436 7.80151L0.444576 7.80055L0.445553 7.79935C0.593501 7.65408 0.758295 7.54489 0.940422 7.47177C1.12255 7.39866 1.3164 7.36234 1.52294 7.36234H2.67478C2.68626 7.33251 2.69822 7.30245 2.71043 7.27166C2.77366 7.11148 2.84251 6.95082 2.91721 6.78968C2.99509 6.6218 3.07371 6.4645 3.15305 6.31971C3.1633 6.3012 3.17356 6.28244 3.18381 6.26392L2.48728 5.57581C2.34056 5.4327 2.22874 5.27084 2.15184 5.09214C2.07249 4.90742 2.03319 4.71429 2.03319 4.5137C2.03319 4.31384 2.07249 4.12215 2.15111 3.93816C2.22899 3.75633 2.34056 3.59374 2.48631 3.4504L2.48728 3.45136L3.85812 2.09775L3.86276 2.09318C4.00973 1.9508 4.17233 1.84137 4.35104 1.76633C4.53658 1.68864 4.7319 1.64896 4.9377 1.64896C5.14644 1.64896 5.34249 1.68936 5.52681 1.76873C5.70723 1.84642 5.8669 1.9585 6.00752 2.10401L6.8266 2.89962C6.85151 2.88784 6.87616 2.87653 6.90082 2.86523C7.05146 2.79668 7.21283 2.72982 7.38544 2.6644C7.54681 2.60259 7.71649 2.54487 7.89349 2.49147C7.91717 2.4845 7.94061 2.47728 7.96405 2.47055V1.50032C7.96405 1.2954 8.00262 1.10299 8.07928 0.922126C8.15496 0.744387 8.2658 0.584206 8.41131 0.441341L8.42303 0.430037C8.56975 0.290299 8.73235 0.184473 8.9113 0.111598C9.09514 0.037039 9.28581 0 9.48479 0H11.4447C11.651 0 11.8451 0.0363174 12.027 0.109433C12.2123 0.183992 12.3781 0.292945 12.5241 0.436771L12.5231 0.437974L12.5241 0.438936C12.6715 0.583965 12.7821 0.746311 12.8566 0.926455C12.9308 1.10564 12.9677 1.29685 12.9677 1.50008V2.63506C12.9979 2.64636 13.0287 2.65815 13.0597 2.66993C13.2223 2.73223 13.3854 2.80005 13.549 2.87365C13.7196 2.95061 13.8793 3.02806 14.026 3.10622L14.0826 3.13653L14.7811 2.45034C14.9266 2.30556 15.0907 2.19564 15.2721 2.11988C15.4598 2.04171 15.6556 2.00323 15.8592 2.00323C16.0621 2.00371 16.2569 2.04219 16.4437 2.11964ZM10.2204 5.71314C10.5216 5.71314 10.8156 5.74152 11.1032 5.79804C11.3844 5.85336 11.6642 5.93898 11.9425 6.05467L11.9464 6.05635L11.9472 6.05467C12.2101 6.16627 12.4606 6.30071 12.6984 6.45753C12.9337 6.61266 13.1513 6.78775 13.3507 6.98257L13.3532 6.98497C13.5512 7.18171 13.7289 7.39625 13.8864 7.6281C14.0455 7.86236 14.1818 8.10913 14.2953 8.36792C14.3021 8.3838 14.3085 8.39991 14.3138 8.41602C14.422 8.67602 14.5026 8.93698 14.5558 9.19913C14.6132 9.48222 14.642 9.77204 14.642 10.0688C14.642 10.3656 14.6132 10.6554 14.5558 10.9383C14.4996 11.2154 14.4127 11.491 14.2953 11.7654L14.2936 11.7693L14.2953 11.7697C14.182 12.0285 14.0455 12.2753 13.8864 12.5096C13.7289 12.7414 13.5512 12.9557 13.3532 13.1524L13.3507 13.1548C13.1513 13.3497 12.9337 13.5248 12.6981 13.6801C12.4603 13.8367 12.2101 13.9711 11.9472 14.083C11.9311 14.0897 11.9149 14.096 11.8983 14.101C11.6344 14.2076 11.3695 14.2869 11.1032 14.3394C10.8158 14.3959 10.5216 14.4243 10.2204 14.4243C9.91911 14.4243 9.62517 14.3961 9.33782 14.3394C9.05657 14.2843 8.77678 14.1987 8.49847 14.083L8.49456 14.0813L8.49383 14.083C8.23113 13.9711 7.98065 13.8369 7.74286 13.6801C7.50751 13.5248 7.28998 13.3497 7.09052 13.1548L7.08832 13.1524C6.89033 12.9559 6.71259 12.7414 6.55512 12.5096C6.39594 12.2753 6.25972 12.0288 6.14643 11.7697C6.13935 11.7541 6.13325 11.7377 6.12788 11.7219C6.01973 11.4619 5.93916 11.2007 5.88569 10.9383C5.82832 10.6554 5.79951 10.3656 5.79951 10.0688C5.79951 9.77204 5.82832 9.48246 5.88569 9.19913C5.94185 8.92206 6.02876 8.64644 6.14619 8.37225L6.14766 8.3684L6.14619 8.36792C6.25947 8.10889 6.3957 7.86236 6.55488 7.6281C6.71259 7.39625 6.89008 7.18195 7.08808 6.98497L7.09027 6.98281C7.28974 6.78799 7.50726 6.6129 7.74261 6.45777C7.98065 6.30095 8.23089 6.16651 8.49383 6.05491C8.51019 6.04794 8.52654 6.04192 8.54314 6.03663C8.80681 5.93032 9.0717 5.85071 9.33782 5.79828C9.62492 5.74152 9.91911 5.71314 10.2204 5.71314ZM10.8759 6.92148C10.6645 6.88011 10.446 6.85918 10.2204 6.85918C9.99479 6.85918 9.77629 6.88011 9.56486 6.92148C9.3615 6.9614 9.16863 7.01792 8.98625 7.09104C8.97527 7.09633 8.96404 7.10162 8.95256 7.10643C8.74627 7.19422 8.55779 7.29427 8.38763 7.40659C8.21551 7.52011 8.05609 7.64855 7.90887 7.79213C7.76361 7.93668 7.63324 8.09398 7.51801 8.26354C7.40424 8.43118 7.30268 8.61685 7.21356 8.81985L7.21186 8.81912C7.1308 9.00913 7.06879 9.2102 7.02582 9.42305C6.98359 9.63134 6.96235 9.84659 6.96235 10.0688C6.96235 10.2911 6.98334 10.5063 7.02582 10.7146C7.06635 10.9147 7.12372 11.1047 7.1977 11.2844C7.20331 11.2952 7.20844 11.3063 7.21356 11.3178C7.30243 11.521 7.40399 11.7062 7.51801 11.8741C7.63324 12.0437 7.76361 12.2007 7.90936 12.3458C8.05633 12.4891 8.21575 12.6175 8.38787 12.7311C8.55804 12.8434 8.74651 12.9434 8.95256 13.031L8.95183 13.0327C9.14446 13.1123 9.34856 13.1736 9.56462 13.2162C9.77604 13.2575 9.9943 13.2785 10.2201 13.2785C10.4457 13.2785 10.6642 13.2575 10.8756 13.2162C11.079 13.1763 11.2716 13.1197 11.454 13.0469C11.4652 13.0413 11.4765 13.036 11.4879 13.0312C11.6942 12.9437 11.8825 12.8436 12.0526 12.7315C12.2248 12.6178 12.3844 12.4893 12.5314 12.346C12.6769 12.2012 12.8073 12.0439 12.9227 11.8741C13.0365 11.7067 13.1381 11.521 13.2269 11.3181L13.2287 11.3185C13.3097 11.1288 13.3717 10.9277 13.4149 10.7148C13.4572 10.5066 13.4784 10.2913 13.4784 10.0691C13.4784 9.84684 13.4572 9.63158 13.4149 9.42329C13.3744 9.22295 13.317 9.03318 13.2431 8.85352C13.2374 8.84269 13.2321 8.83163 13.2272 8.82009C13.1383 8.61709 13.0368 8.43142 12.9227 8.26378C12.8075 8.09398 12.6771 7.93692 12.5319 7.79237C12.3849 7.64879 12.2252 7.52035 12.0531 7.40683C11.8827 7.29451 11.6945 7.19446 11.4882 7.10667L11.4889 7.10499C11.2963 7.02514 11.0922 6.96405 10.8759 6.92148Z" fill="#151323" fill-opacity="0.6"/>
</svg>
