<svg width="23" height="23" viewBox="0 0 23 23" fill="none" xmlns="http://www.w3.org/2000/svg">
<path d="M11.5 2.73125C13.1675 2.73125 14.5188 4.0825 14.5188 5.75C14.5188 7.4175 13.1675 8.76875 11.5 8.76875C9.8325 8.76875 8.48125 7.4175 8.48125 5.75C8.48125 4.0825 9.8325 2.73125 11.5 2.73125ZM11.5 15.6687C15.7694 15.6687 20.2688 17.7675 20.2688 18.6875V20.2688H2.73125V18.6875C2.73125 17.7675 7.23063 15.6687 11.5 15.6687ZM11.5 0C8.32312 0 5.75 2.57312 5.75 5.75C5.75 8.92688 8.32312 11.5 11.5 11.5C14.6769 11.5 17.25 8.92688 17.25 5.75C17.25 2.57312 14.6769 0 11.5 0ZM11.5 12.9375C7.66187 12.9375 0 14.8638 0 18.6875V23H23V18.6875C23 14.8638 15.3381 12.9375 11.5 12.9375Z" fill="#5681F0" fill-opacity="0.6"/>
</svg>
