<svg width="25" height="23" viewBox="0 0 25 23" fill="none" xmlns="http://www.w3.org/2000/svg">
<g clip-path="url(#clip0)">
<path fill-rule="evenodd" clip-rule="evenodd" d="M22.8457 21.793V22.6151C22.8457 22.8277 22.6782 23 22.4722 23H2.42951C2.2229 23 2.05534 22.8277 2.05534 22.6151V10.8131C1.63754 10.9787 1.24764 10.9807 0.922403 10.8687C0.668844 10.7809 0.455662 10.6233 0.297843 10.4181C0.141426 10.2143 0.040371 9.96552 0.0104016 9.69322C-0.0358813 9.27012 0.0879826 8.78924 0.439275 8.34002V8.3407C0.456917 8.31785 0.477143 8.29712 0.500542 8.27897L12.2182 0.101278C12.3498 -0.0234039 12.5538 -0.0361607 12.6998 0.0812319L24.4408 8.24146H24.4402C24.4558 8.25414 24.4708 8.26826 24.4845 8.28299C24.9571 8.8067 25.0745 9.38676 24.9603 9.87759C24.9037 10.119 24.7909 10.3369 24.6358 10.516C24.4799 10.695 24.2831 10.8345 24.0575 10.9183C23.7003 11.0511 23.2759 11.0464 22.8456 10.8372V21.793H22.8457ZM7.40068 18.6936H8.007C8.40332 18.0612 9.25332 17.7307 10.0141 17.4356C10.2019 17.3625 10.3843 17.2915 10.5506 17.2197C10.6386 17.1003 10.711 16.9716 10.7671 16.8341C10.8153 16.7154 10.8518 16.5908 10.876 16.4586C10.7397 16.3755 10.6093 16.2776 10.4855 16.165C9.98093 15.7043 9.62823 15.3281 9.40073 14.8936C9.16998 14.4517 9.07284 14.2183 9.08591 13.5377L9.12178 12.2334C9.12244 12.212 9.12569 12.1912 9.13285 12.1718L8.68634 12.0135C8.62182 10.5188 9.43993 9.62162 10.4517 9.17156C10.8206 9.008 10.2027 8.17912 11.0514 8.47146C12.185 8.86305 14.7 9.37142 15.2951 10.0768C15.7795 10.6502 15.799 10.9646 15.7873 11.719C15.784 11.9639 15.7462 12.179 15.6328 12.2576C15.5806 12.2938 15.5181 12.3072 15.4457 12.2985V13.6805C15.4457 14.6146 15.1211 15.1383 14.6224 15.7164C14.3414 16.0416 14.0057 16.3032 13.6419 16.4909C13.6635 16.611 13.6941 16.7263 13.7326 16.8356C13.7775 16.9637 13.8342 17.0857 13.9027 17.201C14.0493 17.2681 14.1927 17.3291 14.3374 17.3901C15.0481 17.6891 15.7703 17.9936 16.1445 18.6937H16.9652C17.254 18.6937 17.4907 18.9371 17.4907 19.2342V22.0157H6.87547V19.2342C6.87547 18.9372 7.11205 18.6937 7.4009 18.6937L7.40068 18.6936ZM12.1347 20.7113C12.4828 20.7113 12.7651 21.0017 12.7651 21.3598C12.7651 21.7179 12.4829 22.0083 12.1347 22.0083C11.7866 22.0083 11.5043 21.718 11.5043 21.3598C11.5043 21.0018 11.7866 20.7113 12.1347 20.7113ZM11.5415 16.7463C11.428 16.7154 11.3166 16.6772 11.2077 16.6302C11.1803 16.7503 11.1438 16.8662 11.0982 16.9769C11.0415 17.1171 10.9691 17.2505 10.8831 17.3765C10.9783 17.4859 11.0865 17.579 11.2038 17.6568C11.5206 17.8673 11.9027 17.9666 12.2774 17.9566C12.6509 17.9472 13.0154 17.8304 13.3009 17.6079C13.4 17.5307 13.4893 17.4416 13.5655 17.339C13.4984 17.2196 13.4417 17.0936 13.3954 16.9615C13.3596 16.8596 13.3302 16.7549 13.3067 16.647C12.9417 16.7811 12.5721 16.8482 12.2097 16.8428C11.9828 16.8388 11.7592 16.8072 11.5415 16.7463ZM11.1699 16.2017C11.2878 16.2654 11.4085 16.3177 11.5317 16.3586C11.7624 16.433 12.003 16.4686 12.2455 16.4686V16.4693C12.6295 16.4693 13.0186 16.3794 13.3811 16.2097C13.7442 16.0401 14.0793 15.7907 14.3543 15.4721C14.7976 14.9578 15.0858 14.5179 15.0858 13.6803V12.6403L15.0864 12.6396C15.0825 12.5169 15.0662 12.4029 15.0349 12.3003C15.0049 12.2017 14.9619 12.1145 14.9039 12.0394C14.6842 11.7565 14.475 11.7598 14.1777 11.7605H14.0858C12.9092 11.7558 12.1373 11.7169 11.5115 11.6297C10.9346 11.5493 10.4816 11.4293 9.95421 11.2596C9.90468 11.3729 9.84666 11.4843 9.77889 11.5928C9.69282 11.731 9.5931 11.8624 9.47839 11.9872L9.44384 13.5428C9.4321 14.1564 9.51618 14.3355 9.7163 14.7183C9.92033 15.1079 10.249 15.4567 10.7228 15.8891C10.848 16.0031 10.9822 16.0997 11.1224 16.1788C11.1393 16.1842 11.1556 16.1916 11.17 16.2016L11.1699 16.2017ZM13.7122 13.0205C13.9266 13.0205 14.1 13.1988 14.1 13.4188C14.1 13.6387 13.926 13.8171 13.7122 13.8171C13.4984 13.8171 13.325 13.6387 13.325 13.4188C13.325 13.1988 13.4984 13.0205 13.7122 13.0205ZM10.7898 13.0205C11.0042 13.0205 11.1776 13.1988 11.1776 13.4188C11.1776 13.6387 11.0042 13.8171 10.7898 13.8171C10.576 13.8171 10.4026 13.6387 10.4026 13.4188C10.4026 13.1988 10.576 13.0205 10.7898 13.0205ZM11.4587 15.0758C11.3759 15.0202 11.3524 14.9062 11.4065 14.821C11.46 14.7359 11.5715 14.711 11.6542 14.7667C11.8582 14.9034 12.0544 14.9773 12.241 14.9799C12.4215 14.982 12.6001 14.9162 12.7768 14.7754C12.855 14.7124 12.9678 14.7271 13.0291 14.8076C13.0897 14.888 13.0754 15.0047 12.9971 15.0671C12.754 15.2615 12.4998 15.3514 12.2364 15.348C11.9789 15.344 11.7195 15.2502 11.4587 15.0758ZM8.46393 18.6935H15.7168C15.3719 18.2242 14.7819 17.9753 14.2012 17.7306C14.0799 17.679 13.9587 17.628 13.8433 17.5771C13.7468 17.7118 13.6289 17.8298 13.4952 17.9297C13.1745 18.1691 12.7599 18.3065 12.3323 18.328C11.9072 18.3494 11.4659 18.2556 11.0891 18.033C10.9021 17.9216 10.7306 17.7795 10.5853 17.6039C10.4438 17.6629 10.2939 17.7212 10.1407 17.7802C9.52659 18.0189 8.8494 18.2817 8.46408 18.6935H8.46393ZM19.4064 22.033H21.9063V10.3838C21.9063 10.3589 21.909 10.3342 21.9135 10.31L12.5376 3.88791L2.98291 10.3141C2.99074 10.3456 2.99531 10.3784 2.99531 10.4126V22.033H19.4063H19.4064Z" fill="#5681F0" fill-opacity="0.6"/>
</g>
<defs>
<clipPath id="clip0">
<rect width="25" height="23" fill="white"/>
</clipPath>
</defs>
</svg>
