<svg width="21" height="23" viewBox="0 0 21 23" fill="none" xmlns="http://www.w3.org/2000/svg">
<g clip-path="url(#clip0)">
<path d="M13.6063 20.3247C13.538 20.7 13.4174 21.0444 13.2437 21.3581C13.0642 21.6817 12.8294 21.9718 12.5392 22.2281C12.2491 22.484 11.9325 22.6767 11.5912 22.8057C11.2492 22.9347 10.8853 22.9994 10.501 22.9994C10.1165 22.9994 9.75274 22.9347 9.41055 22.8057C9.06908 22.6769 8.75292 22.484 8.46277 22.2281C8.17244 21.9718 7.93756 21.6815 7.75812 21.3581C7.57904 21.0347 7.45631 20.6787 7.38956 20.2901C7.35708 20.1001 7.47838 19.9182 7.66051 19.8841C7.66625 19.8832 7.71954 19.8777 7.71954 19.8774H13.2823C13.4683 19.8774 13.6191 20.0346 13.6191 20.2283C13.6189 20.2618 13.6148 20.294 13.6063 20.3247ZM12.2731 1.28514C12.546 1.35944 12.8111 1.44966 13.068 1.55542C13.4464 1.71114 13.81 1.89907 14.1583 2.11825C14.1719 2.12705 14.1852 2.1364 14.1983 2.14595C14.5322 2.36008 14.8428 2.59536 15.1294 2.85197C15.429 3.12038 15.7084 3.41705 15.9673 3.7418L15.9695 3.74423H15.9699C16.2229 4.06393 16.4493 4.40515 16.6494 4.76658C16.8502 5.12989 17.0219 5.50817 17.1638 5.90011L17.1645 5.89992C17.3113 6.3031 17.4211 6.71638 17.4936 7.13939C17.5665 7.56447 17.6026 8.00021 17.6026 8.44662C17.6026 9.32896 17.6026 9.80494 17.6029 9.86278C17.6047 10.3152 17.607 10.7573 17.6103 11.1889V11.1934C17.6117 11.5833 17.6363 11.9756 17.6828 12.3687C17.7287 12.7574 17.796 13.1329 17.8828 13.4943L17.8835 13.4942C17.9708 13.8505 18.0886 14.1932 18.2365 14.5223C18.3883 14.8611 18.5729 15.1924 18.7902 15.5164L18.7913 15.5156C19.0057 15.8333 19.2742 16.147 19.5966 16.4566C19.9295 16.7764 20.3162 17.0898 20.756 17.3967C21.0083 17.5731 21.0759 17.9294 20.9067 18.1928C20.8008 18.3577 20.627 18.447 20.4497 18.4472V18.449H15.4753H10.501H5.52629H0.551947C0.247084 18.449 0 18.1913 0 17.8735C0 17.6644 0.106765 17.4815 0.266463 17.3806C0.71344 17.0651 1.09725 16.7529 1.41773 16.4433C1.73659 16.1352 2.00359 15.82 2.21837 15.4971C2.22483 15.4876 2.23129 15.4784 2.23811 15.4694C2.44572 15.1523 2.62336 14.8293 2.7705 14.5012C2.92015 14.1674 3.04019 13.8232 3.13009 13.4685C3.13189 13.461 3.13386 13.4537 3.13601 13.4464C3.22125 13.102 3.2862 12.7391 3.33124 12.3586C3.37646 11.9754 3.39907 11.5797 3.39907 11.1724V8.44662C3.39907 8.00863 3.43675 7.57233 3.51193 7.13883C3.58712 6.7059 3.69783 6.29018 3.84371 5.89318C3.98888 5.49619 4.16293 5.11566 4.36497 4.75217C4.56576 4.39111 4.79508 4.04783 5.05186 3.72346L5.05491 3.71971L5.05419 3.71897C5.31043 3.39946 5.5916 3.10279 5.89772 2.83007C6.19971 2.5611 6.52575 2.31665 6.87565 2.09747C7.23004 1.87679 7.59609 1.69149 7.97524 1.54138C8.23883 1.43693 8.50978 1.34934 8.78791 1.2784C8.88283 0.931937 9.04576 0.65155 9.27633 0.436861C9.59465 0.140376 10.0144 -0.00505825 10.5351 -0.000378886C11.051 0.00430048 11.4671 0.153291 11.7825 0.447155C12.0138 0.662593 12.1775 0.941858 12.2731 1.28514ZM12.6671 2.62568C12.3619 2.50027 12.0506 2.40144 11.7335 2.3305C11.4893 2.29756 11.2882 2.09598 11.257 1.82944C11.2272 1.57844 11.1581 1.40249 11.0499 1.30179C10.9413 1.20053 10.7667 1.14887 10.5265 1.14663C10.2878 1.14438 10.1154 1.19267 10.0093 1.2915C9.90167 1.39182 9.83348 1.56945 9.80477 1.82495H9.80424C9.77768 2.06884 9.60201 2.27679 9.35852 2.32414C9.01489 2.39209 8.68348 2.48942 8.36318 2.61632C8.04343 2.74285 7.73605 2.89839 7.44034 3.08238C7.14588 3.26675 6.87027 3.47377 6.61332 3.70249C6.35672 3.93103 6.11861 4.18278 5.89916 4.45643L5.89844 4.45587C5.68419 4.72709 5.4904 5.01796 5.31814 5.32792C5.14857 5.63282 5.00036 5.95795 4.8744 6.30253C4.74843 6.64506 4.65512 6.99171 4.59447 7.34135C4.53347 7.69212 4.50314 8.06085 4.50314 8.44681V11.1728C4.50314 11.6243 4.47748 12.0664 4.42652 12.4986C4.37736 12.9148 4.30217 13.3274 4.20115 13.7349C4.19935 13.7437 4.19738 13.7526 4.19523 13.7614C4.0899 14.1768 3.94689 14.5854 3.76655 14.9872C3.5925 15.3753 3.38525 15.7526 3.14552 16.1189C3.13871 16.1309 3.13153 16.1427 3.12381 16.1543C2.87117 16.5335 2.55105 16.9103 2.16347 17.2846L2.14947 17.2979H5.52629H10.501H15.4753H18.8464C18.4676 16.9337 18.1489 16.5601 17.8904 16.1769L17.8911 16.1762L17.8904 16.1747C17.6363 15.7958 17.4193 15.4069 17.2406 15.0084C17.058 14.6019 16.916 14.1916 16.8145 13.7777L16.8148 13.7775L16.8145 13.7755C16.7149 13.3633 16.6388 12.9405 16.5877 12.5081C16.539 12.0947 16.513 11.6583 16.5109 11.1994V11.1981C16.5076 10.7717 16.5053 10.3266 16.5035 9.86297C16.5003 9.00496 16.499 8.53665 16.499 8.44681C16.499 8.06796 16.4685 7.6996 16.4071 7.3421C16.3461 6.98591 16.255 6.64151 16.1342 6.30946L16.1349 6.30927L16.1342 6.30721C16.0102 5.96487 15.8643 5.64143 15.6966 5.33802C15.529 5.03536 15.337 4.74674 15.1204 4.4729L15.1208 4.47272C14.906 4.20356 14.6704 3.95424 14.414 3.72458C14.1654 3.50222 13.9029 3.30231 13.6257 3.12431C13.6135 3.11776 13.6011 3.11084 13.5893 3.10316C13.2902 2.91524 12.983 2.75558 12.6671 2.62568Z" fill="#5681F0" fill-opacity="0.6"/>
</g>
<defs>
<clipPath id="clip0">
<rect width="21" height="23" fill="white"/>
</clipPath>
</defs>
</svg>
