<svg width="12" height="17" viewBox="0 0 12 17" fill="none" xmlns="http://www.w3.org/2000/svg">
<path d="M5.71434 8.93584H0.423435C0.189582 8.93584 0 8.74077 0 8.50005C0 8.25932 0.189582 8.06439 0.423435 8.06439H5.71407L3.9933 6.05669C3.83889 5.87712 3.85519 5.60277 4.0297 5.44395C4.2042 5.28513 4.47079 5.30187 4.62519 5.48144L6.96617 8.2127C7.10999 8.37982 7.10564 8.62899 6.96346 8.79085L4.62506 11.5189C4.47065 11.6985 4.20407 11.7152 4.02956 11.5564C3.85519 11.3976 3.83889 11.1231 3.99316 10.9435L5.71434 8.93584ZM6.4417 16.9872C6.20133 17.0465 5.9596 16.8961 5.90147 16.6513C5.84335 16.4066 5.99097 16.1602 6.23107 16.101C6.80932 15.9582 7.30826 15.8574 7.76606 15.7651C9.93755 15.3268 11.1022 15.0919 11.1022 12.0094V4.73962C11.1022 1.85965 9.87074 1.62515 7.83124 1.23694C7.34289 1.14397 6.81299 1.04312 6.23107 0.899238C5.99097 0.840025 5.84335 0.593767 5.90147 0.348892C5.9596 0.104155 6.20133 -0.04609 6.4417 0.0129843C6.98763 0.148011 7.51251 0.247898 7.99624 0.339899C10.4927 0.815261 12 1.10219 12 4.73949V12.0094C12 15.8423 10.5818 16.1284 7.93785 16.662C7.46729 16.7569 6.95517 16.8604 6.4417 16.9872Z" fill="#5B4DA9"></path>
</svg>
