<svg width="17" height="14" viewBox="0 0 17 14" fill="none" xmlns="http://www.w3.org/2000/svg">
<g clip-path="url(#clip0)">
<path d="M7.87191 7.0007H9.12809C9.31209 7.0007 9.48088 7.0759 9.60124 7.19845C9.72298 7.321 9.79769 7.48951 9.79769 7.67472V10.3402C9.79769 10.5254 9.72298 10.6939 9.60124 10.8165C9.47949 10.939 9.31209 11.0142 9.12809 11.0142H7.87191C7.68791 11.0142 7.52051 10.939 7.39876 10.8165C7.27702 10.6939 7.20231 10.5254 7.20231 10.3402V7.67612C7.20231 7.4909 7.27702 7.321 7.39876 7.19984C7.52051 7.07729 7.68791 7.0007 7.87191 7.0007ZM0.964274 1.9441H5.32218V0.687954C5.32218 0.498558 5.39827 0.327266 5.52279 0.20193C5.64591 0.0765941 5.81746 0 6.00562 0H10.9944C11.1825 0 11.3527 0.0765941 11.4772 0.20193C11.6003 0.325873 11.6778 0.498558 11.6778 0.687954V1.94549H16.0357C16.3014 1.94549 16.5421 2.05411 16.7178 2.23098C16.8921 2.40645 17.0014 2.65015 17.0014 2.91754V13.0307C17.0014 13.2981 16.8935 13.5404 16.7178 13.7173C16.5435 13.8928 16.3014 14.0028 16.0357 14.0028H0.964274C0.698649 14.0028 0.457926 13.8942 0.282227 13.7173C0.10791 13.539 0 13.2967 0 13.0293V2.91614C0 2.64876 0.10791 2.40645 0.28361 2.22958C0.457926 2.05411 0.698649 1.9441 0.964274 1.9441ZM10.9944 0.603004H6.00562C5.9821 0.603004 5.96134 0.612752 5.94613 0.628071C5.93091 0.64339 5.92122 0.664279 5.92122 0.687954V1.93156H11.0788V0.687954C11.0788 0.664279 11.0691 0.64339 11.0539 0.628071C11.0387 0.61136 11.0179 0.603004 10.9944 0.603004ZM0.597656 7.74714C2.80151 8.38496 4.43123 8.65931 6.63648 8.76236V9.36536C4.43262 9.2637 2.8029 8.99632 0.597656 8.37103V13.028C0.597656 13.1296 0.63916 13.2215 0.705566 13.2884C0.771973 13.3552 0.863281 13.397 0.964274 13.397H16.0343C16.1353 13.397 16.2266 13.3552 16.2931 13.2884C16.3595 13.2215 16.401 13.1296 16.401 13.028V8.37243C14.1999 8.99632 12.6684 9.2637 10.4687 9.36536V8.76236C12.6698 8.65791 14.2013 8.38357 16.401 7.74714V2.91614C16.401 2.81448 16.3595 2.72257 16.2931 2.65572C16.2266 2.58888 16.1353 2.5471 16.0343 2.5471H0.964274C0.863281 2.5471 0.771973 2.58888 0.705566 2.65572C0.63916 2.72257 0.597656 2.81448 0.597656 2.91614V7.74714ZM9.12809 7.6037H7.87191C7.85254 7.6037 7.83455 7.61206 7.8221 7.62459C7.80965 7.63712 7.80135 7.65523 7.80135 7.67472V10.3402C7.80135 10.3597 7.80965 10.3778 7.8221 10.3903C7.83455 10.4043 7.85254 10.4112 7.87191 10.4112H9.12809C9.14746 10.4112 9.16545 10.4029 9.1779 10.3903C9.19035 10.3778 9.19865 10.3597 9.19865 10.3402V7.67612C9.19865 7.65662 9.19035 7.63852 9.1779 7.62598C9.16545 7.61206 9.14746 7.6037 9.12809 7.6037Z" fill="white"/>
</g>
<defs>
<clipPath id="clip0">
<rect width="17" height="14" fill="white"/>
</clipPath>
</defs>
</svg>
