<svg width="8" height="7" viewBox="0 0 8 7" fill="none" xmlns="http://www.w3.org/2000/svg">
<g clip-path="url(#clip0)">
<path d="M4.26172 1.25068C4.21745 1.29668 4.17318 1.34332 4.11849 1.3989L3.9681 1.55286L3.81185 1.40401C3.76563 1.35993 3.71875 1.31457 3.67318 1.27049C3.1901 0.804119 2.82617 0.452745 2.07682 0.443162C2.04753 0.442524 2.01628 0.443162 1.98372 0.44444C1.56445 0.459134 1.17773 0.610544 0.895182 0.869282C0.616536 1.12483 0.438802 1.48706 0.432943 1.92787C0.432292 1.95535 0.432943 1.98409 0.434245 2.0154C0.479167 3.24648 1.67969 4.32041 2.67513 5.21034C2.86719 5.38219 3.05143 5.54702 3.22786 5.71376L3.96094 6.40693L4.88216 5.50997C5.0306 5.36558 5.19857 5.20778 5.37826 5.03913C5.68359 4.75164 6.02344 4.43285 6.33984 4.1115C6.56706 3.88087 6.78255 3.64896 6.9655 3.426C7.14518 3.20751 7.29232 2.99988 7.38672 2.81461C7.54167 2.51051 7.5905 2.20642 7.55729 1.92212C7.52474 1.64166 7.41211 1.37973 7.24349 1.15613C7.07227 0.929335 6.8444 0.74151 6.58333 0.613099C6.28255 0.466161 5.93815 0.396526 5.58594 0.436135C4.97852 0.505132 4.65495 0.841811 4.26172 1.25068ZM3.95638 0.94914C4.4056 0.482133 4.77865 0.0994555 5.53646 0.014487C5.97396 -0.0347052 6.40234 0.0509021 6.77539 0.234894C7.09766 0.393331 7.37891 0.624599 7.58984 0.903781C7.80273 1.18616 7.94531 1.51773 7.98698 1.87421C8.0293 2.23581 7.9681 2.62104 7.77214 3.00435C7.66146 3.22093 7.4974 3.45347 7.30143 3.69177C7.10938 3.92559 6.88542 4.16708 6.65039 4.40538C6.32813 4.73311 5.98568 5.0551 5.67708 5.34514C5.49675 5.51444 5.32813 5.67287 5.1862 5.81087L4.11458 6.85413L3.96419 7.00043L3.81185 6.85668L2.92643 6.01978C2.76432 5.86709 2.57682 5.69907 2.38216 5.52466C1.32682 4.57978 0.0527344 3.4407 0.00130208 2.03009C0 1.99559 0 1.95982 0 1.92276C0.0078125 1.35673 0.238281 0.889087 0.599609 0.558157C0.957682 0.230422 1.44401 0.0387637 1.96745 0.0202368C2.00326 0.0189591 2.04102 0.0183202 2.08073 0.0189591C2.99479 0.0310974 3.41276 0.423997 3.95638 0.94914Z" fill="#7C7C7C"/>
</g>
<defs>
<clipPath id="clip0">
<rect width="8" height="7" fill="white"/>
</clipPath>
</defs>
</svg>
