<svg width="14" height="14" viewBox="0 0 14 14" fill="none" xmlns="http://www.w3.org/2000/svg">
<g clip-path="url(#clip0)">
<path fill-rule="evenodd" clip-rule="evenodd" d="M1.86388 10.2651C0.835559 10.2651 0 11.1035 0 12.1253C0 13.1524 0.835559 13.982 1.86388 13.982C2.89529 13.982 3.73034 13.1524 3.73034 12.1253C3.73034 11.1035 2.89555 10.2651 1.86388 10.2651ZM0.00181562 4.7551V7.43879C1.74941 7.43879 3.39163 8.12217 4.62868 9.36029C5.86445 10.5948 6.54682 12.245 6.54682 13.9993H9.24186C9.24186 8.90273 5.09502 4.75591 0.00179375 4.75591V4.75513L0.00181562 4.7551ZM0.0051625 -0.0012207V2.68297C6.23702 2.68297 11.3086 7.75968 11.3086 13.9985L14 13.9988C14 6.28128 7.72085 -0.000958203 0.005425 -0.000958203L0.0051625 -0.0012207Z" fill="white"/>
</g>
<defs>
<clipPath id="clip0">
<rect width="14" height="14" fill="white"/>
</clipPath>
</defs>
</svg>
