<svg width="16" height="16" viewBox="0 0 16 16" fill="none" xmlns="http://www.w3.org/2000/svg">
<path d="M6.45178 0C8.2334 0 9.84611 0.704167 11.0137 1.84271C12.1812 2.98125 12.9033 4.55404 12.9033 6.29141C12.9033 7.95925 12.2378 9.47513 11.1519 10.601C11.1716 10.6152 11.1907 10.631 11.2087 10.6484L15.8534 15.1715C16.0479 15.3602 16.049 15.6672 15.8553 15.857C15.6618 16.0469 15.3469 16.0477 15.1524 15.859L10.5077 11.3359C10.4782 11.3073 10.4532 11.276 10.4326 11.2428C9.33591 12.0823 7.9538 12.5829 6.45165 12.5829C4.67003 12.5829 3.05705 11.8788 1.88951 10.7402C0.722102 9.60169 0 8.02878 0 6.29141C0 4.55404 0.722102 2.98125 1.88964 1.84271C3.05718 0.704297 4.67016 0 6.45178 0ZM10.2924 2.54622C9.30948 1.58776 7.95166 0.994922 6.45178 0.994922C4.9519 0.994922 3.59395 1.58776 2.61108 2.54622C1.6282 3.50469 1.02026 4.82878 1.02026 6.29141C1.02026 7.75404 1.6282 9.07826 2.61108 10.0367C3.59382 10.9952 4.95176 11.588 6.45178 11.588C7.95166 11.588 9.30948 10.9952 10.2924 10.0367C11.2752 9.07839 11.8832 7.75417 11.8832 6.29141C11.8832 4.82878 11.2752 3.50469 10.2924 2.54622Z" fill="#C1C1C1"/>
</svg>
