<svg width="13" height="14" viewBox="0 0 13 14" fill="none" xmlns="http://www.w3.org/2000/svg">
<path d="M2.54485 7.15495C2.35673 7.15495 2.20484 6.99202 2.20484 6.7915C2.20484 6.59098 2.35673 6.42806 2.54485 6.42806H5.45542C5.64354 6.42806 5.79543 6.59098 5.79543 6.7915C5.79543 6.99202 5.64354 7.15495 5.45542 7.15495H2.54485ZM10.9097 2.20345H12.1283C12.3679 2.20345 12.5864 2.29915 12.7441 2.45296C12.9019 2.60677 13 2.81982 13 3.05339V13.1501C13 13.3848 12.9019 13.5967 12.7441 13.7505C12.5864 13.9043 12.3679 14 12.1283 14H2.96198C2.72245 14 2.50395 13.9043 2.34622 13.7505C2.18848 13.5967 2.09033 13.3848 2.09033 13.1501V11.7965H0.871652C0.632123 11.7965 0.413626 11.7008 0.255887 11.547C0.0981485 11.3932 0 11.1802 0 10.9466V0.849935C0 0.615234 0.0981485 0.40332 0.255887 0.249512C0.413626 0.0957031 0.630955 0 0.871652 0H10.038C10.2775 0 10.496 0.0957031 10.6538 0.249512C10.8115 0.40332 10.9097 0.616374 10.9097 0.849935V2.20345ZM2.83696 11.7965V13.1501C2.83696 13.1831 2.85098 13.2139 2.87435 13.2355C2.89772 13.2583 2.9281 13.272 2.96198 13.272H12.1283C12.1622 13.272 12.1938 13.2583 12.216 13.2355C12.2393 13.2127 12.2534 13.1831 12.2534 13.1501V3.05339C12.2534 3.02035 12.2393 2.98958 12.216 2.96794C12.1926 2.94515 12.1622 2.93148 12.1283 2.93148H10.9097V10.9455C10.9097 11.179 10.8115 11.3921 10.6538 11.5459C10.496 11.6997 10.2775 11.7954 10.038 11.7954H2.83696V11.7965ZM10.038 0.728027H0.871652C0.837767 0.728027 0.80622 0.741699 0.784019 0.764486C0.760651 0.787272 0.746629 0.816895 0.746629 0.849935V10.9466C0.746629 10.9797 0.760651 11.0104 0.784019 11.0321C0.807388 11.0549 0.837767 11.0685 0.871652 11.0685H10.038C10.0719 11.0685 10.1035 11.0549 10.1257 11.0321C10.149 11.0093 10.163 10.9797 10.163 10.9466V0.849935C10.163 0.816895 10.149 0.786133 10.1257 0.764486C10.1035 0.741699 10.0719 0.728027 10.038 0.728027ZM2.54485 3.26302C2.35673 3.26302 2.20484 3.1001 2.20484 2.89958C2.20484 2.69906 2.35673 2.53613 2.54485 2.53613H8.36482C8.55294 2.53613 8.70483 2.69906 8.70483 2.89958C8.70483 3.1001 8.55294 3.26302 8.36482 3.26302H2.54485ZM2.54485 5.20898C2.35673 5.20898 2.20484 5.04606 2.20484 4.84554C2.20484 4.64502 2.35673 4.4821 2.54485 4.4821H8.36482C8.55294 4.4821 8.70483 4.64502 8.70483 4.84554C8.70483 5.04606 8.55294 5.20898 8.36482 5.20898H2.54485Z" fill="white"/>
</svg>
