<svg width="11" height="7" viewBox="0 0 11 7" fill="none" xmlns="http://www.w3.org/2000/svg">
<path d="M5.13333 0C2.8 0 0.807333 1.45133 0 3.5C0.807333 5.54867 2.8 7 5.13333 7C7.46667 7 9.45933 5.54867 10.2667 3.5C9.45933 1.45133 7.46667 0 5.13333 0ZM5.13333 5.83333C3.84533 5.83333 2.8 4.788 2.8 3.5C2.8 2.212 3.84533 1.16667 5.13333 1.16667C6.42133 1.16667 7.46667 2.212 7.46667 3.5C7.46667 4.788 6.42133 5.83333 5.13333 5.83333ZM5.13333 2.1C4.35867 2.1 3.73333 2.72533 3.73333 3.5C3.73333 4.27467 4.35867 4.9 5.13333 4.9C5.908 4.9 6.53333 4.27467 6.53333 3.5C6.53333 2.72533 5.908 2.1 5.13333 2.1Z" fill="#7C7C7C"/>
</svg>
