<svg width="24" height="22" viewBox="0 0 24 22" fill="none" xmlns="http://www.w3.org/2000/svg">
<path d="M11.8691 2.98229C13.2168 1.51455 14.3359 0.311851 16.6094 0.044807C17.9219 -0.109797 19.207 0.159254 20.3262 0.737514C21.293 1.23546 22.1367 1.9623 22.7695 2.83973C23.4082 3.7272 23.8359 4.76927 23.9609 5.88965C24.0879 7.02609 23.9043 8.23682 23.3164 9.44153C22.9844 10.1222 22.4922 10.853 21.9043 11.602C21.3281 12.3368 20.6563 13.0958 19.9512 13.8447C18.9844 14.8748 17.957 15.8867 17.0312 16.7983C16.4902 17.3304 15.9844 17.8283 15.5586 18.262L12.3438 21.5408L11.8926 22.0006L11.4355 21.5489L8.7793 18.9186C8.29297 18.4387 7.73047 17.9106 7.14648 17.3625C3.98047 14.3929 0.158203 10.8129 0.00390625 6.37957C0 6.27114 0 6.1587 0 6.04225C0.0234375 4.26329 0.714844 2.79355 1.79883 1.75349C2.87305 0.723459 4.33203 0.121105 5.90234 0.0628776C6.00977 0.0588619 6.12305 0.0568541 6.24219 0.0588619C8.98438 0.097011 10.2383 1.33184 11.8691 2.98229Z" fill="#E81717"/>
</svg>
