<svg width="12" height="7" viewBox="0 0 12 7" fill="none" xmlns="http://www.w3.org/2000/svg">
<path fill-rule="evenodd" clip-rule="evenodd" d="M7.90861 0.662807H10.3267C11.0638 0.662807 11.6667 1.17729 11.6667 1.80607V3.82374C11.6667 4.45244 11.0636 4.967 10.3267 4.967H9.28567C9.43464 5.46974 9.61503 5.92136 10.166 6.33839C9.1123 6.10849 8.29902 5.64366 7.70201 4.967H7.5221C7.45212 4.967 7.37883 4.9623 7.30344 4.95339C7.70154 4.67829 7.97811 4.33295 7.97811 3.95902V3.11824C8.06603 3.17041 8.17284 3.20095 8.288 3.20095C8.58841 3.20095 8.83203 2.99308 8.83203 2.73685C8.83203 2.48063 8.58841 2.27276 8.288 2.27276C8.17284 2.27276 8.06603 2.3033 7.97811 2.35539V1.09644C7.9782 0.946416 7.9538 0.801007 7.90861 0.662807ZM5.41701 2.33959C5.11309 2.33959 4.86671 2.54989 4.86671 2.80911C4.86671 3.06834 5.11319 3.27864 5.41701 3.27864C5.72083 3.27864 5.9673 3.06834 5.9673 2.80911C5.9673 2.54989 5.72083 2.33959 5.41701 2.33959ZM2.04015 2.33959C1.73623 2.33959 1.48985 2.54989 1.48985 2.80911C1.48985 3.06834 1.73633 3.27864 2.04015 3.27864C2.34397 3.27864 2.59044 3.06834 2.59044 2.80911C2.59044 2.54989 2.34406 2.33959 2.04015 2.33959ZM3.72853 2.33959C3.42462 2.33959 3.17824 2.54989 3.17824 2.80911C3.17824 3.06834 3.42462 3.27864 3.72853 3.27864C4.03244 3.27864 4.27882 3.06834 4.27882 2.80911C4.27882 2.54989 4.03244 2.33959 3.72853 2.33959ZM5.60167 0.28936H1.85539C1.02131 0.28936 0.339044 0.871565 0.339044 1.58314V3.86627C0.339044 4.57776 1.0215 5.16005 1.85539 5.16005H3.03335C2.86483 5.72888 2.66079 6.24004 2.03711 6.71183C3.22941 6.45172 4.14979 5.92573 4.82532 5.16005H5.02897C5.86286 5.16005 7.11792 4.57784 7.11792 3.86627V1.58306C7.11802 0.871565 6.43566 0.28936 5.60167 0.28936ZM1.85539 0H5.60167H5.60215V0.00113411C6.11351 0.00129613 6.57722 0.178785 6.91237 0.464824L6.91161 0.465391C7.24733 0.752078 7.45573 1.14764 7.45582 1.58298H7.45715V1.58314H7.45582V3.86627H7.45715V3.86651H7.45582C7.45563 4.33198 7.07662 4.73751 6.57171 5.02071C6.10155 5.28447 5.50787 5.44819 5.02916 5.44819V5.44941H5.02897V5.44819H4.99061C4.65243 5.80754 4.25993 6.11448 3.81047 6.36625C3.31344 6.64476 2.75118 6.85457 2.12056 6.9922L2.12028 6.99123C2.0016 7.01675 1.87077 6.98637 1.78408 6.90285C1.66047 6.78361 1.67348 6.60142 1.81323 6.49595C2.08819 6.288 2.27048 6.07155 2.40255 5.84456C2.47603 5.71827 2.53528 5.58631 2.58664 5.44941H1.85539H1.85491V5.44819C1.34374 5.44811 0.879937 5.27054 0.544786 4.98458C0.20954 4.69854 0.00132921 4.30274 0.00123427 3.86635H0V3.86619H0.00132921V1.58306H0V1.58265H0.00132921C0.00142415 1.15542 0.20185 0.766821 0.526082 0.482159C0.531969 0.476246 0.53814 0.470413 0.544691 0.464824C0.879937 0.178785 1.34383 0.00113411 1.85529 0.0010531V0H1.85539ZM10.0232 2.27276C9.72289 2.27276 9.47926 2.48063 9.47926 2.73685C9.47926 2.99308 9.72289 3.20095 10.0232 3.20095C10.3236 3.20095 10.5672 2.99308 10.5672 2.73685C10.5672 2.48063 10.3236 2.27276 10.0232 2.27276Z" fill="#7C7C7C"/>
</svg>
