<svg width="9" height="12" viewBox="0 0 9 12" fill="none" xmlns="http://www.w3.org/2000/svg">
<path fill-rule="evenodd" clip-rule="evenodd" d="M2.49635 6.53809C2.55923 6.47168 2.66152 6.4707 2.72534 6.53711C2.78916 6.60352 2.78916 6.71094 2.72628 6.77832L2.44943 7.07031L2.72628 7.3623C2.78916 7.42871 2.78822 7.53516 2.7244 7.60156C2.66058 7.66797 2.55829 7.66699 2.49635 7.60156L2.22138 7.31152L1.94546 7.60254C1.88259 7.66895 1.77935 7.66992 1.71648 7.60352C1.65266 7.53711 1.65266 7.42969 1.71554 7.3623L1.99239 7.07031L1.71554 6.77832C1.65266 6.71191 1.6536 6.60547 1.71741 6.53906C1.78123 6.47266 1.88352 6.47363 1.94546 6.53906L2.22044 6.8291L2.49635 6.53809ZM3.478 0.492188V0.980469C3.478 1.10645 3.38133 1.21582 3.26402 1.22461C3.23869 1.2334 3.20959 1.2373 3.1805 1.2373H2.30866V2.24805C3.76893 2.24805 5.23014 2.24805 6.69041 2.24805V1.23828H5.8195C5.79041 1.23828 5.76038 1.23438 5.73597 1.22559C5.61867 1.2168 5.522 1.10742 5.522 0.981445V0.493164C4.84067 0.492188 4.15933 0.492188 3.478 0.492188ZM2.19135 2.75C2.09468 2.75 2.00271 2.70605 1.93983 2.64062C1.93139 2.63184 1.92763 2.62305 1.91919 2.61426C1.86851 2.54883 1.83566 2.46582 1.83566 2.37891V1.88184H0.52367C0.51147 1.88184 0.494578 1.88574 0.486131 1.89941C0.477685 1.90918 0.469239 1.92676 0.469239 1.93945V11.4502C0.469239 11.4678 0.472993 11.4805 0.486131 11.4893C0.494578 11.498 0.506778 11.5068 0.52367 11.5068C3.21616 11.5068 5.78384 11.5068 8.47633 11.5068C8.49322 11.5068 8.50542 11.498 8.51387 11.4893C8.52607 11.4805 8.53076 11.4678 8.53076 11.4502V1.93945C8.53076 1.92676 8.52232 1.90918 8.51387 1.90039C8.50542 1.8877 8.48853 1.88281 8.47633 1.88281H7.16434V2.37988C7.16434 2.4668 7.13055 2.5498 7.08081 2.61523C7.07237 2.62402 7.06861 2.63281 7.06017 2.6416C6.99729 2.70703 6.90532 2.75098 6.80866 2.75098C5.26955 2.75 3.73045 2.75 2.19135 2.75ZM0.527424 12C0.384776 12 0.250574 11.9395 0.154849 11.8389C0.0581856 11.7383 0 11.6035 0 11.4512V1.93945C0 1.78711 0.0581856 1.65137 0.154849 1.55176C0.251512 1.45117 0.381022 1.39062 0.527424 1.39062H1.83942V1.12012C1.83942 1.01953 1.87696 0.928711 1.94453 0.858398C2.0074 0.792969 2.09562 0.749023 2.19604 0.749023H3.00876V0.410156C3.00876 0.296875 3.05474 0.196289 3.12607 0.12207C3.19739 0.0478516 3.29312 0 3.40198 0C4.13399 0 4.86507 0 5.59708 0C5.70594 0 5.80261 0.0478516 5.87393 0.12207C5.94526 0.196289 5.99124 0.296875 5.99124 0.410156V0.75H6.80396C6.90438 0.75 6.9926 0.793945 7.05547 0.859375C7.12211 0.928711 7.16058 1.02051 7.16058 1.12109V1.3916H8.47258C8.61898 1.3916 8.74943 1.45215 8.84515 1.55273C8.94181 1.65332 9 1.78809 9 1.94043V11.4512C9 11.6035 8.94181 11.7393 8.84515 11.8389C8.74849 11.9395 8.61429 12 8.47258 12C5.7829 12 3.2171 12 0.527424 12ZM7.16715 9.72656C7.29666 9.72656 7.40553 9.61719 7.40553 9.47852C7.40553 9.34375 7.30042 9.23047 7.16715 9.23047C6.70636 9.23047 4.45495 9.23047 3.99416 9.23047C3.85996 9.23047 3.75579 9.34375 3.75579 9.47852C3.75579 9.61816 3.86465 9.72656 3.99416 9.72656C4.45495 9.72656 6.70636 9.72656 7.16715 9.72656ZM7.16715 4.96094C7.29666 4.96094 7.40553 4.85156 7.40553 4.71289C7.40553 4.57812 7.30042 4.46484 7.16715 4.46484C6.70636 4.46484 4.45495 4.46484 3.99416 4.46484C3.85996 4.46484 3.75579 4.57812 3.75579 4.71289C3.75579 4.85254 3.86465 4.96094 3.99416 4.96094C4.45495 4.96094 6.70636 4.96094 7.16715 4.96094ZM7.16715 7.31152C7.29666 7.31152 7.40553 7.20215 7.40553 7.06348C7.40553 6.92871 7.30042 6.81543 7.16715 6.81543C6.70636 6.81543 4.45495 6.81543 3.99416 6.81543C3.85996 6.81543 3.75579 6.92871 3.75579 7.06348C3.75579 7.20312 3.86465 7.31152 3.99416 7.31152C4.45495 7.31152 6.70636 7.31152 7.16715 7.31152ZM1.72586 9.46582C1.66111 9.36523 1.68644 9.22852 1.78405 9.16016C1.88071 9.09277 2.0121 9.11914 2.07779 9.2207L2.19322 9.39844L2.65026 8.81934C2.7244 8.72559 2.85766 8.71191 2.94776 8.78906C3.03785 8.86621 3.05099 9.00488 2.97685 9.09863L2.34432 9.89941C2.33024 9.91797 2.31335 9.93457 2.29364 9.94922C2.19698 10.0166 2.06559 9.99023 1.9999 9.88867L1.72586 9.46582ZM1.72586 4.94727C1.66111 4.84668 1.68644 4.70996 1.78405 4.6416C1.88071 4.57422 2.0121 4.60059 2.07779 4.70215L2.19322 4.87988L2.65026 4.30078C2.7244 4.20703 2.85766 4.19336 2.94776 4.27051C3.03785 4.34766 3.05099 4.48633 2.97685 4.58008L2.34432 5.38086C2.33024 5.39941 2.31335 5.41602 2.29364 5.43066C2.19698 5.49805 2.06559 5.47168 1.9999 5.37012L1.72586 4.94727Z" fill="#6892DD"/>
</svg>
