<svg width="24" height="24" viewBox="0 0 24 24" fill="none" xmlns="http://www.w3.org/2000/svg">
<path d="M12 0C15.3136 0 18.3136 1.34315 20.4852 3.51484C22.6568 5.68635 24 8.6864 24 12C24 15.3136 22.6568 18.3136 20.4852 20.4852C18.3136 22.6568 15.3136 24 12 24C8.6864 24 5.68635 22.6568 3.51484 20.4852C1.34315 18.3136 0 15.3136 0 12C0 8.6864 1.34315 5.68635 3.51484 3.51484C5.68635 1.34315 8.6864 0 12 0ZM9.0806 16.9975C10.2527 19.4415 13.8054 19.5272 14.9273 17.0115C14.6211 16.7018 14.3943 16.37 14.1686 16.0401C14.1315 15.9861 14.0948 15.9321 14.0572 15.8777C13.5152 16.3077 12.8581 16.5815 12.0016 16.5794C11.0777 16.577 10.3822 16.224 9.81157 15.7024C9.77737 15.6711 9.74371 15.6394 9.71059 15.607C9.62887 15.834 9.52501 16.1056 9.41395 16.3589C9.30685 16.6029 9.19183 16.8328 9.0806 16.9975ZM18.0971 21.0604L18.3631 18.2326C17.3802 18.0406 16.3288 17.8332 15.2402 17.2065C14.4266 19.9194 10.0488 20.2418 8.81564 17.2769C7.83968 17.7688 6.84573 18.0496 5.71137 18.2247L6.09639 21.1879C7.79846 22.2839 9.82489 22.9198 12 22.9198C14.2579 22.9198 16.356 22.2346 18.0973 21.0604H18.0971ZM3.23494 18.5142L3.28192 18.4875C4.44634 17.8381 7.47626 17.6239 8.73302 16.7464C8.825 16.6078 8.92508 16.4057 9.02065 16.1875C9.16501 15.8583 9.29677 15.4977 9.38029 15.2526C9.02804 14.8386 8.72744 14.3711 8.438 13.9107L7.48508 12.3956C7.1366 11.876 6.95552 11.401 6.94455 11.0114C6.93933 10.828 6.97047 10.6615 7.03815 10.5157C7.10906 10.3624 7.21832 10.2342 7.36556 10.1352C7.4345 10.0888 7.51136 10.0495 7.5965 10.0175C7.53476 9.19561 7.51172 8.16008 7.5515 7.29338C7.57202 7.08764 7.61126 6.88191 7.66886 6.67635C7.9124 5.80623 8.52314 5.10603 9.27877 4.62472C9.69511 4.35958 10.1519 4.15888 10.6286 4.02406C10.9304 3.93874 10.3708 2.97089 10.6835 2.93885C12.1964 2.78351 14.6438 4.16482 15.7001 5.30745C16.2293 5.88003 16.5608 6.63873 16.6328 7.64258L16.5734 10.1154C16.8377 10.1959 17.0069 10.3634 17.0763 10.6347C17.153 10.9351 17.0697 11.3587 16.8152 11.9363L16.8144 11.9359C16.8098 11.9464 16.8044 11.9568 16.7984 11.9669L15.7127 13.7554C15.3136 14.4123 14.9088 15.0711 14.3803 15.5912C14.4276 15.6592 14.4753 15.7289 14.5229 15.7985C14.738 16.1132 14.9543 16.4294 15.2328 16.7111C15.2418 16.7201 15.2497 16.7298 15.2565 16.7399C16.5074 17.6232 19.5501 17.8368 20.7175 18.4877L20.7645 18.5143C22.1181 16.6958 22.9195 14.4417 22.9195 12.0004C22.9195 8.98483 21.6973 6.25479 19.7211 4.27876C17.745 2.30273 15.015 1.08035 11.9995 1.08035C8.98394 1.08035 6.25389 2.30255 4.27786 4.27876C2.30183 6.25479 1.07945 8.98483 1.07945 12.0004C1.07945 14.4417 1.88081 16.6958 3.2344 18.5143L3.23494 18.5142ZM8.14604 10.4569C7.9349 10.4651 7.77506 10.5089 7.66562 10.5825C7.60334 10.6243 7.55726 10.6779 7.52792 10.7414C7.49516 10.8122 7.48022 10.898 7.48292 10.9967C7.4912 11.2867 7.64312 11.6656 7.93688 12.1021L7.94102 12.1084L8.89394 13.6236C9.27607 14.2313 9.67657 14.8505 10.1743 15.3057C10.6529 15.7433 11.2339 16.0394 12.0014 16.0413C12.833 16.0435 13.4413 15.7357 13.9348 15.2736C14.4483 14.793 14.8533 14.1342 15.2526 13.4767L16.3259 11.7088C16.5261 11.2525 16.599 10.9466 16.5531 10.7677C16.5259 10.661 16.4082 10.6088 16.2075 10.5987C16.1648 10.5965 16.1211 10.5962 16.0768 10.5974C16.0289 10.5989 15.9789 10.6021 15.9269 10.6068C15.8984 10.6093 15.8705 10.6073 15.8441 10.6014C15.7487 10.6068 15.6502 10.6001 15.5498 10.5854L15.9175 8.95873C13.1902 9.38857 11.1499 7.36286 8.26682 8.55356L8.47454 10.4711C8.35826 10.4763 8.24828 10.4723 8.14604 10.457V10.4569Z" fill="#5A4CA7"/>
</svg>
