<svg width="37" height="22" viewBox="0 0 37 22" fill="none" xmlns="http://www.w3.org/2000/svg">
<path fill-rule="evenodd" clip-rule="evenodd" d="M24.8556 2.08311H32.4554C34.7719 2.08311 36.6667 3.70005 36.6667 5.67623V12.0175C36.6667 13.9934 34.7713 15.6106 32.4554 15.6106H29.1835C29.6517 17.1906 30.2187 18.61 31.9502 19.9206C28.6387 19.1981 26.0826 17.7372 24.2063 15.6106H23.6409C23.4209 15.6106 23.1906 15.5958 22.9537 15.5678C24.2048 14.7032 25.0741 13.6179 25.0741 12.4426V9.80018C25.3504 9.96414 25.6861 10.0601 26.048 10.0601C26.9921 10.0601 27.7578 9.40683 27.7578 8.60154C27.7578 7.79625 26.9921 7.14296 26.048 7.14296C25.6861 7.14296 25.3504 7.23894 25.0741 7.40265V3.44596C25.0744 2.97445 24.9977 2.51745 24.8556 2.08311ZM17.0249 7.353C16.0697 7.353 15.2954 8.01393 15.2954 8.82864C15.2954 9.64335 16.07 10.3043 17.0249 10.3043C17.9797 10.3043 18.7544 9.64335 18.7544 8.82864C18.7544 8.01393 17.9797 7.353 17.0249 7.353ZM6.41189 7.353C5.45673 7.353 4.6824 8.01393 4.6824 8.82864C4.6824 9.64335 5.45703 10.3043 6.41189 10.3043C7.36675 10.3043 8.14138 9.64335 8.14138 8.82864C8.14138 8.01393 7.36705 7.353 6.41189 7.353ZM11.7182 7.353C10.7631 7.353 9.98874 8.01393 9.98874 8.82864C9.98874 9.64335 10.7631 10.3043 11.7182 10.3043C12.6734 10.3043 13.4477 9.64335 13.4477 8.82864C13.4477 8.01393 12.6734 7.353 11.7182 7.353ZM17.6053 0.909419H5.83122C3.20983 0.909419 1.06557 2.7392 1.06557 4.97558V12.1511C1.06557 14.3872 3.21042 16.2173 5.83122 16.2173H9.53339C9.00374 18.0051 8.36249 19.6116 6.40234 21.0943C10.1496 20.2768 13.0422 18.6237 15.1653 16.2173H15.8053C18.4261 16.2173 22.3706 14.3875 22.3706 12.1511V4.97532C22.3709 2.7392 20.2263 0.909419 17.6053 0.909419ZM5.83122 0H17.6053H17.6067V0.00356435C19.2139 0.00407354 20.6712 0.561894 21.7246 1.46087L21.7222 1.46266C22.7773 2.36367 23.4323 3.60687 23.4326 4.97507H23.4368V4.97558H23.4326V12.1511H23.4368V12.1519H23.4326C23.432 13.6148 22.2408 14.8893 20.6539 15.7794C19.1763 16.6083 17.3104 17.1229 15.8059 17.1229V17.1267H15.8053V17.1229H15.6848C14.6219 18.2523 13.3883 19.2169 11.9757 20.0082C10.4137 20.8835 8.64657 21.5429 6.66463 21.9755L6.66374 21.9724C6.29074 22.0526 5.87956 21.9572 5.60712 21.6947C5.21861 21.3199 5.25949 20.7473 5.69873 20.4158C6.56288 19.7623 7.1358 19.082 7.55086 18.3686C7.78182 17.9717 7.96802 17.557 8.12945 17.1267H5.83122H5.82973V17.1229C4.22317 17.1226 2.76552 16.5646 1.71219 15.6658C0.658556 14.7668 0.00417752 13.5229 0.00387912 12.1514H0V12.1509H0.00417752V4.97532H0V4.97405H0.00417752C0.00447591 3.63131 0.634386 2.41001 1.6534 1.51536C1.6719 1.49677 1.6913 1.47844 1.71189 1.46087C2.76552 0.561894 4.22347 0.00356435 5.83092 0.00330975V0H5.83122ZM31.5015 7.14296C30.5576 7.14296 29.792 7.79625 29.792 8.60154C29.792 9.40683 30.5576 10.0601 31.5015 10.0601C32.4456 10.0601 33.2113 9.40683 33.2113 8.60154C33.2113 7.79625 32.4456 7.14296 31.5015 7.14296Z" fill="#55C942"/>
</svg>
