<svg width="19" height="11" viewBox="0 0 19 11" fill="none" xmlns="http://www.w3.org/2000/svg">
<path fill-rule="evenodd" clip-rule="evenodd" d="M12.9035 5.74027L13.6448 7.60035L15.5966 7.74926L14.103 9.048L14.5682 11L12.9035 9.94272L11.2389 11L11.704 9.048L10.21 7.74926L12.1621 7.60035L12.9035 5.74027ZM16.3069 0L17.0482 1.86008L19 2.00899L17.5063 3.30757L17.9715 5.25957L16.3069 4.20213L14.6423 5.25957L15.1074 3.30757L13.6136 2.00899L15.5657 1.85992L16.3069 0ZM2.69337 0L3.43463 1.86008L5.38658 2.00899L3.89293 3.30757L4.35803 5.25957L2.69337 4.20213L1.02886 5.25973L1.49396 3.30773L0 2.00899L1.95211 1.85992L2.69337 0ZM9.5 0L10.2414 1.86008L12.1932 2.00899L10.6996 3.30757L11.1647 5.25957L9.5 4.20229L7.83549 5.25973L8.30059 3.30773L6.80663 2.00915L8.75874 1.86008L9.5 0ZM6.09676 5.74027L6.83802 7.60035L8.78997 7.74926L7.29632 9.048L7.76143 11L6.09692 9.94272L4.43241 11L4.89751 9.048L3.40355 7.74926L5.35566 7.60035L6.09676 5.74027Z" fill="white"/>
</svg>
