<svg width="14" height="18" viewBox="0 0 14 18" fill="none" xmlns="http://www.w3.org/2000/svg">
<path d="M1.29394 6.69522H1.72323V5.41655C1.72323 3.93135 2.31464 2.57944 3.2677 1.59785C4.22448 0.611865 5.54571 0 7 0C8.45444 0 9.77552 0.611865 10.7326 1.59771C11.6855 2.5793 12.2769 3.93135 12.2769 5.41641V6.69507H12.7062C13.0624 6.69507 13.386 6.83862 13.6203 7.07007C13.8545 7.30151 14 7.621 14 7.97271V16.7222C14 17.0739 13.8546 17.3936 13.6203 17.6249C13.3859 17.8562 13.0624 17.9999 12.7062 17.9999H1.29394C0.937635 17.9999 0.614113 17.8563 0.379741 17.6249C0.14537 17.3934 0 17.0742 0 16.7224V7.97285C0 7.62114 0.145518 7.30151 0.379741 7.07022C0.614113 6.83892 0.937635 6.69522 1.29394 6.69522ZM6.52681 12.7882L5.90528 14.3965H8.09502L7.51888 12.7661C7.88453 12.5801 8.13448 12.2036 8.13448 11.7696C8.13448 11.151 7.62643 10.6494 7.00015 10.6494C6.37372 10.6494 5.86567 11.1511 5.86567 11.7696C5.86552 12.2215 6.13653 12.611 6.52681 12.7882ZM2.63342 6.69522H11.3667V5.41655C11.3667 4.16983 10.8734 3.03823 10.0783 2.21938C9.28735 1.40464 8.19782 0.898975 7 0.898975C5.80218 0.898975 4.71265 1.40464 3.92172 2.21924C3.12679 3.03809 2.63327 4.16968 2.63327 5.41641V6.69522H2.63342ZM12.7062 7.59419H1.29394C1.18892 7.59419 1.09324 7.63696 1.02352 7.70581C0.953804 7.77466 0.91049 7.86929 0.91049 7.97285V16.7224C0.91049 16.8259 0.953804 16.9206 1.02352 16.9893C1.09324 17.0583 1.18907 17.1009 1.29394 17.1009H12.7064C12.8114 17.1009 12.9072 17.0583 12.9768 16.9893C13.0465 16.9204 13.0898 16.8259 13.0898 16.7224V7.97285C13.0898 7.86929 13.0465 7.77466 12.9768 7.70581C12.9069 7.63696 12.8112 7.59419 12.7062 7.59419Z" fill="#969696"/>
</svg>
