<svg width="19" height="19" viewBox="0 0 19 19" fill="none" xmlns="http://www.w3.org/2000/svg">
<path d="M6.88704 15.0287V13.3599C6.88704 13.1055 7.09315 12.8996 7.3475 12.8996H7.56985V10.1036H7.30684C7.05248 10.1036 6.84622 9.8973 6.84622 9.64295V7.8679C6.84622 7.61354 7.05248 7.40743 7.30684 7.40743H10.581C10.893 7.40743 11.128 7.53964 11.2868 7.80296C11.4005 7.99175 11.4574 8.24347 11.4574 8.55751V12.8996H11.6933C11.9477 12.8996 12.1539 13.1055 12.1539 13.3599V15.0287C12.1539 15.2831 11.9477 15.4893 11.6933 15.4893H7.3475C7.09315 15.4893 6.88704 15.2831 6.88704 15.0287ZM9.5 0.920923C8.9061 0.920923 8.33028 0.976742 7.77302 1.08838C7.21484 1.20001 6.67675 1.36654 6.15892 1.58765L6.15923 1.58827C5.63166 1.8151 5.14104 2.08012 4.688 2.3841C4.23372 2.68886 3.81268 3.03506 3.4255 3.42378L3.42365 3.42548C3.03508 3.81265 2.68888 4.23368 2.38397 4.68796C2.07998 5.141 1.81496 5.63177 1.58813 6.15918C1.58488 6.1666 1.58163 6.17387 1.57808 6.18113C1.3616 6.692 1.19832 7.22282 1.08823 7.77296C0.97675 8.33021 0.920931 8.90602 0.920931 9.49977C0.920931 10.0938 0.97675 10.6693 1.08823 11.2269C1.20002 11.7849 1.3664 12.3231 1.58751 12.8408H1.58813C1.81496 13.3681 2.08014 13.8588 2.38397 14.3119C2.68873 14.7662 3.03493 15.1874 3.42365 15.5745L3.42535 15.5764V15.5761C3.81252 15.9648 4.23356 16.3111 4.68784 16.6159C5.14089 16.92 5.63166 17.1849 6.15907 17.4116C6.1665 17.4148 6.17376 17.4182 6.18088 17.4218C6.6919 17.6379 7.22257 17.8014 7.77287 17.9116C8.33013 18.0231 8.90594 18.0789 9.49985 18.0789C10.0938 18.0789 10.6694 18.0231 11.2268 17.9116C11.7849 17.7998 12.3231 17.6335 12.8408 17.4123L12.8405 17.4114C13.368 17.1846 13.8588 16.9197 14.3118 16.6157C14.7661 16.311 15.187 15.9646 15.5742 15.5759L15.5762 15.5744H15.576C15.9648 15.1872 16.311 14.7659 16.6157 14.3117C16.9197 13.8587 17.1849 13.3679 17.4116 12.8407C17.4148 12.8331 17.4182 12.8258 17.4216 12.8186C17.6379 12.3075 17.8014 11.777 17.9115 11.2267C18.0231 10.6693 18.0789 10.0937 18.0789 9.49961C18.0789 8.90587 18.0231 8.33006 17.9115 7.7728C17.7997 7.21462 17.6333 6.67654 17.4122 6.15887L17.4116 6.15902C17.1847 5.63146 16.9196 5.14084 16.6157 4.6878C16.311 4.23353 15.9648 3.81249 15.576 3.42532L15.5743 3.42347H15.5742C15.187 3.03475 14.766 2.68871 14.3118 2.38379C13.8588 2.07981 13.368 1.81463 12.8405 1.58796C12.833 1.58471 12.8258 1.58131 12.8187 1.57791C12.3076 1.36159 11.777 1.19816 11.2267 1.08807C10.6697 0.976742 10.0939 0.920923 9.5 0.920923ZM7.5932 0.185391C8.21045 0.0618485 8.84626 0 9.5 0C10.1537 0 10.7896 0.0618485 11.4068 0.185391C12.014 0.306923 12.6048 0.489531 13.1789 0.732904C13.1874 0.735997 13.1956 0.739398 13.2041 0.7428C13.7762 0.988957 14.316 1.28135 14.8229 1.62151C15.328 1.96044 15.7956 2.34483 16.2247 2.77529C16.6552 3.20437 17.0395 3.6721 17.3785 4.17724C17.7185 4.68378 18.011 5.22372 18.2572 5.79582L18.2564 5.79613L18.2572 5.79767C18.5055 6.37905 18.6915 6.97759 18.8146 7.59314C18.9382 8.21038 18.9998 8.84618 18.9998 9.49992C18.9998 10.1538 18.9382 10.7898 18.8146 11.4067C18.6931 12.0141 18.5105 12.6047 18.2671 13.1788C18.264 13.1873 18.2608 13.1957 18.2572 13.2042C18.011 13.7761 17.7186 14.3161 17.3785 14.8229C17.0395 15.3279 16.6552 15.7956 16.2247 16.2247C15.7956 16.655 15.3279 17.0396 14.8229 17.3783C14.3162 17.7183 13.7762 18.011 13.2041 18.2572L13.2038 18.2566L13.2021 18.2572C12.6207 18.5054 12.0222 18.6915 11.4068 18.8146C10.7896 18.9382 10.1537 19 9.5 19C8.84626 19 8.21045 18.9382 7.5932 18.8146C6.986 18.6929 6.39503 18.5105 5.82107 18.2671C5.81257 18.264 5.80422 18.2608 5.79587 18.2572C5.22361 18.011 4.68382 17.7185 4.17712 17.3783C3.67197 17.0396 3.20439 16.655 2.77532 16.2247C2.34485 15.7956 1.96046 15.3277 1.62153 14.8229C1.28151 14.3162 0.988965 13.7761 0.742806 13.2042L0.743425 13.2039L0.742806 13.2023C0.494328 12.621 0.308472 12.0221 0.185392 11.4067C0.061849 10.7896 0 10.1537 0 9.49977C0 8.84603 0.061849 8.21023 0.185392 7.59298C0.306925 6.98578 0.48938 6.39498 0.73291 5.82102C0.736003 5.81252 0.73925 5.80417 0.742806 5.79566C0.988965 5.22357 1.28136 4.68363 1.62153 4.17709C1.96046 3.67194 2.34485 3.20421 2.77532 2.77514C3.20439 2.34468 3.67197 1.96029 4.17712 1.62136C4.68382 1.28135 5.22361 0.988802 5.79587 0.742645L5.79618 0.743264L5.79772 0.742645C6.3791 0.494324 6.9778 0.308469 7.5932 0.185391ZM7.80797 13.812V14.5682H11.2327V13.812C11.1568 13.7996 11.0823 13.773 11.0094 13.7325C10.9324 13.6903 10.8599 13.6343 10.7911 13.5658C10.7232 13.498 10.6672 13.4242 10.624 13.3447C10.566 13.2387 10.5364 13.1306 10.5364 13.021V8.55766C10.5364 8.45577 10.5303 8.37938 10.5179 8.32851H7.7673V9.18558C7.85992 9.1947 7.94991 9.22439 8.03681 9.27433L8.03604 9.27572L8.03681 9.27619C8.10221 9.31391 8.16545 9.36339 8.22607 9.42462C8.23612 9.4339 8.24617 9.44364 8.2556 9.454C8.32147 9.5259 8.37342 9.59749 8.41038 9.66877C8.46372 9.77113 8.49094 9.87565 8.49094 9.98219V13.0211C8.49094 13.1168 8.46929 13.2108 8.42692 13.3028C8.42197 13.3149 8.41641 13.327 8.41022 13.3387C8.37218 13.4118 8.3193 13.4837 8.2522 13.5549C8.18401 13.6274 8.11196 13.6854 8.03557 13.7288C7.9612 13.7712 7.88559 13.799 7.80797 13.812ZM9.5068 6.88822C9.25461 6.88822 9.02114 6.85033 8.8059 6.77457C8.58309 6.69587 8.38502 6.57774 8.21153 6.41956C8.20334 6.41229 8.19561 6.40456 8.18818 6.39683C8.02042 6.24005 7.89394 6.05914 7.80828 5.85442C7.71999 5.64336 7.67623 5.4122 7.67623 5.16172C7.67623 4.91185 7.71999 4.67945 7.80843 4.46577C7.89889 4.24682 8.0331 4.0554 8.21153 3.89243L8.22081 3.88424C8.39058 3.72962 8.58494 3.61303 8.80404 3.53418C9.0216 3.45578 9.25585 3.41682 9.5068 3.41682C9.76379 3.41682 10.0007 3.45532 10.2179 3.53232C10.4426 3.6121 10.6417 3.73209 10.8154 3.89243L10.8155 3.89228C10.994 4.05525 11.1282 4.24667 11.2188 4.46561C11.3071 4.6793 11.3508 4.9117 11.3508 5.16156C11.3508 5.4122 11.3072 5.64336 11.2188 5.85442C11.1291 6.06873 10.9947 6.25705 10.8148 6.41879L10.8155 6.41956C10.6424 6.57743 10.4426 6.69571 10.2161 6.77457C9.99788 6.85049 9.76162 6.88822 9.5068 6.88822ZM9.11174 5.90761C9.22477 5.9475 9.35651 5.96745 9.50696 5.96745C9.66375 5.96745 9.7995 5.94766 9.91408 5.90761C10.0205 5.87066 10.1148 5.81468 10.1969 5.73985L10.1977 5.74062L10.2006 5.73799C10.2762 5.67027 10.3326 5.59156 10.3702 5.50204C10.4104 5.40586 10.4304 5.29237 10.4304 5.16172C10.4304 5.02797 10.4104 4.91216 10.3701 4.81459C10.333 4.7246 10.2753 4.64374 10.197 4.5723L10.1973 4.57215L10.1935 4.56875C10.1128 4.49375 10.0191 4.43716 9.91253 4.39944C9.79688 4.35831 9.66174 4.3379 9.50727 4.3379C9.35589 4.3379 9.22462 4.35784 9.11391 4.39773C9.01356 4.43376 8.92295 4.4885 8.84224 4.56163C8.83853 4.56534 8.83482 4.5689 8.83079 4.57246C8.75256 4.64389 8.69504 4.72476 8.65777 4.81475C8.61757 4.91216 8.59747 5.02812 8.59747 5.16172C8.59747 5.29222 8.61742 5.40586 8.65762 5.50188C8.6921 5.5843 8.74251 5.65743 8.80915 5.72129C8.81641 5.72717 8.82368 5.73335 8.83064 5.73969C8.91244 5.81437 9.00614 5.87035 9.11174 5.90761Z" fill="#909090"/>
</svg>
