<svg width="19" height="18" viewBox="0 0 19 18" fill="none" xmlns="http://www.w3.org/2000/svg">
<g clip-path="url(#clip0)">
<path d="M16.4209 3.36745C16.6961 3.7027 16.9512 4.05766 17.2033 4.49909C18.1295 6.11311 18.5206 7.94709 18.3614 9.7386C18.2052 11.4891 17.5218 13.2018 16.2941 14.6338C15.8534 15.148 15.3803 15.6016 14.8824 15.9945C13.1645 17.3491 11.1282 18.0181 9.09796 17.9998C7.06777 17.9801 5.04531 17.2748 3.35528 15.8792C2.86204 15.4726 2.39972 15.01 1.9776 14.4942C0.986469 13.2867 0.349425 11.8714 0.10976 10.3772C-0.126812 8.91035 0.0185326 7.36914 0.584451 5.87799C1.12408 4.45965 1.94822 3.19604 3.02439 2.20548C4.04799 1.26346 5.30198 0.570217 6.75388 0.224355C7.20847 0.116652 7.67234 0.0453563 8.14394 0.0165345C8.61708 -0.0138043 9.10105 -0.00318575 9.59739 0.0499071C9.90818 0.0832798 10.1324 0.357846 10.0984 0.662751C10.0643 0.967655 9.78448 1.18761 9.47369 1.15424C9.04384 1.10721 8.62481 1.09811 8.21507 1.1239C7.80532 1.14969 7.40639 1.21037 7.01983 1.30138C5.76585 1.5987 4.68504 2.19789 3.7975 3.01401C2.84967 3.88776 2.1214 5.00575 1.64207 6.26481C1.14573 7.57089 1.01739 8.92097 1.22459 10.2028C1.43487 11.5058 1.99151 12.7421 2.85585 13.7979C3.23777 14.2636 3.64752 14.6747 4.07892 15.0312C5.56175 16.2554 7.33063 16.8743 9.10414 16.891C10.8777 16.9077 12.6605 16.3206 14.1696 15.1298C14.618 14.7764 15.0386 14.3744 15.4267 13.9208C16.4966 12.6739 17.0919 11.1767 17.2296 9.64303C17.3703 8.06996 17.0254 6.45897 16.2137 5.04215C15.9678 4.61438 15.7173 4.27307 15.439 3.94389L15.3571 6.17379C15.3462 6.48021 15.0849 6.71989 14.7726 6.70775C14.4603 6.69713 14.216 6.44077 14.2283 6.13435L14.3598 2.58168C14.3706 2.27526 14.6319 2.03558 14.9442 2.04772C14.9643 2.04772 14.9829 2.05075 15.0014 2.05227L18.5114 2.53617C18.8206 2.57864 19.0371 2.85776 18.9938 3.16267C18.9505 3.46605 18.666 3.67843 18.3552 3.63595L16.4209 3.36745Z" fill="#6ACD80"/>
</g>
<defs>
<clipPath id="clip0">
<rect width="19" height="18" fill="white"/>
</clipPath>
</defs>
</svg>
