<svg width="14" height="20" viewBox="0 0 14 20" fill="none" xmlns="http://www.w3.org/2000/svg">
<g clip-path="url(#clip0)">
<path d="M12.4263 10.514H6.29246C6.0214 10.514 5.8017 10.2839 5.8017 10.0002C5.8017 9.71632 6.0214 9.48618 6.29246 9.48618H12.426L10.4309 7.11802C10.2519 6.90627 10.2709 6.5827 10.4732 6.39552C10.6755 6.20819 10.9847 6.22788 11.1635 6.43963L13.8774 9.66098C14.044 9.85809 14.039 10.1524 13.8742 10.343L11.1634 13.5607C10.9844 13.7726 10.6753 13.7923 10.473 13.6048C10.2709 13.4175 10.2519 13.0939 10.4308 12.8822L12.4263 10.514ZM6.65789 18.9899C6.92313 19.0565 7.08614 19.3333 7.02191 19.6083C6.95768 19.8832 6.69071 20.0523 6.42531 19.9855C5.8284 19.8355 5.23463 19.7136 4.6897 19.6017C1.6373 18.9751 0 18.6392 0 14.1392V5.56447C0 1.29559 1.74001 0.958511 4.62186 0.400405C5.18281 0.291844 5.7915 0.174006 6.42531 0.0145003C6.69055 -0.0520687 6.95768 0.116877 7.02191 0.391942C7.08598 0.666844 6.92313 0.9437 6.65789 1.01027C5.98403 1.1797 5.37 1.29852 4.80403 1.40822C2.4269 1.8685 0.991711 2.1465 0.991711 5.56447V14.1392C0.991711 17.7959 2.34901 18.0746 4.87941 18.5939C5.41052 18.703 5.98921 18.822 6.65789 18.9899Z" fill="#909090"/>
</g>
<defs>
<clipPath id="clip0">
<rect width="14" height="20" fill="white"/>
</clipPath>
</defs>
</svg>
