<svg width="24" height="24" viewBox="0 0 24 24" fill="none" xmlns="http://www.w3.org/2000/svg">
<path fill-rule="evenodd" clip-rule="evenodd" d="M4.95892 0.445469L6.68001 2.16656C4.22474 3.91177 2.58782 6.70415 2.40724 9.89375H6.10352e-05C0.168541 6.04218 2.07021 2.64802 4.95892 0.445469ZM19.0411 0.445469C21.9177 2.64802 23.8193 6.04218 23.9999 9.89375H21.5927C21.4122 6.70422 19.7633 3.91184 17.332 2.16656L19.0411 0.445469ZM13.8054 2.07037L13.8054 2.88879C17.2477 3.70722 19.2216 6.80055 19.2216 10.4955V16.5135L21.6288 18.9208V20.1243L2.37117 20.1244V18.9208L4.77835 16.5136V10.4956C4.77835 6.78846 6.7402 3.70722 10.1945 2.88879V2.07037C10.1945 1.07129 11.001 0.264893 12 0.264893C12.999 0.264893 13.8054 1.07137 13.8054 2.07037ZM9.58075 21.328H14.3952C14.3952 21.665 14.335 21.978 14.2147 22.2668C13.9017 22.989 13.2638 23.5185 12.4815 23.6871C12.325 23.7232 12.1686 23.7352 12 23.7353C10.664 23.7353 9.59284 22.6519 9.58075 21.3281V21.328Z" fill="#52D08C"/>
</svg>
