<svg width="17" height="22" viewBox="0 0 17 22" fill="none" xmlns="http://www.w3.org/2000/svg">
<path d="M8.5 2.96484C10.0169 2.96484 11.3884 3.56999 12.3839 4.54932C13.3776 5.52865 13.9917 6.88216 13.9917 8.37712C13.9917 9.80583 13.4303 11.1056 12.5129 12.0724C12.4185 11.5658 12.2768 11.1092 12.0951 10.7046C12.542 10.0368 12.8018 9.23649 12.8018 8.37712C12.8018 7.20622 12.3204 6.14632 11.5429 5.38005C10.7653 4.61377 9.68989 4.13932 8.50182 4.13932C7.31374 4.13932 6.2383 4.61377 5.46078 5.38005C4.68327 6.14632 4.20186 7.20622 4.20186 8.37712C4.20186 9.27051 4.48162 10.0994 4.96121 10.7834C4.77773 11.1826 4.6324 11.6284 4.5343 12.119C3.59147 11.1468 3.01197 9.8291 3.01197 8.37712C3.01197 6.88216 3.62599 5.53044 4.61968 4.54932C5.60975 3.56999 6.98312 2.96484 8.5 2.96484ZM5.5934 11.9829C6.05664 10.2767 11.4266 10.5936 11.4266 11.9202C11.423 25.6452 5.58976 25.0526 5.5934 11.9829ZM8.52725 5.87419C9.80979 5.87419 10.8489 6.89827 10.8489 8.16227C10.8489 9.42627 9.80979 10.4504 8.52725 10.4504C7.24471 10.4504 6.2056 9.42627 6.2056 8.16227C6.2056 6.89827 7.24471 5.87419 8.52725 5.87419ZM8.5 0C10.8471 0 12.9725 0.938151 14.5094 2.4528C16.0481 3.96924 16.9982 6.06217 16.9982 8.37533C16.9982 10.6885 16.0463 12.7832 14.5094 14.2979C13.9063 14.8923 13.2123 15.3971 12.4512 15.7928C12.5057 15.3792 12.5547 14.9513 12.5947 14.5037C12.6001 14.4465 12.6038 14.3892 12.6074 14.3319C12.9871 14.0758 13.3413 13.7876 13.6665 13.4671C14.989 12.1637 15.8065 10.3626 15.8065 8.37354C15.8065 6.38444 14.989 4.58333 13.6665 3.27995C12.3458 1.98014 10.5183 1.17269 8.5 1.17269C6.48173 1.17269 4.6542 1.97835 3.33169 3.28174C2.00919 4.58691 1.18989 6.38802 1.18989 8.37712C1.18989 10.3662 2.00737 12.1673 3.32988 13.4707C3.66232 13.7983 4.02565 14.0937 4.4144 14.3534C4.41985 14.4357 4.4253 14.5163 4.43439 14.6004C4.47617 15.0194 4.52522 15.4222 4.57972 15.8125C3.80402 15.415 3.09917 14.903 2.48696 14.2996C0.951913 12.785 0 10.6903 0 8.37712C0 6.06396 0.951913 3.96924 2.48878 2.4528C4.02746 0.938151 6.15292 0 8.5 0Z" fill="#909090"/>
</svg>
