<svg width="20" height="19" viewBox="0 0 20 19" fill="none" xmlns="http://www.w3.org/2000/svg">
<path fill-rule="evenodd" clip-rule="evenodd" d="M19.9121 7.93397L18.488 9.47575L19.9121 11.0175L20 11.1127L19.9121 11.2078L19.0104 12.184L18.9225 12.2791L18.8346 12.184L17.4105 10.6422L15.9863 12.184L15.8984 12.2791L15.8105 12.184L14.9089 11.2078L14.821 11.1127L14.9089 11.0175L16.333 9.47575L14.9089 7.93397L14.821 7.83883L14.9089 7.74368L15.8105 6.76751L15.8984 6.67236L15.9863 6.76751L17.4105 8.30929L18.8346 6.76751L18.9225 6.67236L19.0104 6.76751L19.9121 7.74368L20 7.83883L19.9121 7.93397ZM0 18.9995V15.9283C1.51855 15.1971 6.16536 13.8068 6.38509 11.7946C6.43392 11.34 5.44434 9.60967 5.2181 8.77975C4.73307 7.94278 4.55892 6.61245 5.08952 5.72791C5.30111 5.3755 5.20996 4.0945 5.20996 3.60995C5.20996 -1.20569 13.0029 -1.20745 13.0029 3.60995C13.0029 4.21961 12.8743 5.3385 13.1787 5.81601C13.6898 6.61597 13.4261 8.03617 12.9948 8.77799C12.7181 9.65019 11.6683 11.2995 11.7578 11.7928C12.0915 13.6306 16.403 14.864 17.7588 15.5178V18.9978H0V18.9995Z" fill="#FF7070"/>
</svg>
