<svg width="24" height="24" viewBox="0 0 24 24" fill="none" xmlns="http://www.w3.org/2000/svg">
<path d="M12 5V1L7 6L12 11V7C15.31 7 18 9.69 18 13C18 16.31 15.31 19 12 19C8.69 19 6 16.31 6 13H4C4 17.42 7.58 21 12 21C16.42 21 20 17.42 20 13C20 8.58 16.42 5 12 5Z" fill="white"/>
<path d="M10.6899 13.9L10.9399 11.73H13.3299V12.44H11.6299L11.5199 13.36C11.5499 13.34 11.5899 13.33 11.6299 13.31C11.6699 13.29 11.7199 13.27 11.7799 13.26C11.8399 13.25 11.8999 13.23 11.9599 13.22C12.0199 13.21 12.0899 13.2 12.1599 13.2C12.3699 13.2 12.5499 13.23 12.7099 13.3C12.8699 13.37 13.0099 13.46 13.1199 13.58C13.2299 13.7 13.3199 13.85 13.3699 14.03C13.4199 14.21 13.4599 14.41 13.4599 14.63C13.4599 14.82 13.4299 15 13.3699 15.17C13.3099 15.34 13.2199 15.49 13.0999 15.62C12.9799 15.75 12.8299 15.86 12.6499 15.93C12.4699 16 12.2599 16.05 12.0099 16.05C11.8299 16.05 11.6499 16.02 11.4799 15.97C11.3099 15.92 11.1599 15.83 11.0199 15.73C10.8799 15.63 10.7799 15.49 10.6999 15.34C10.6199 15.19 10.5699 15.01 10.5699 14.81H11.4099C11.4299 14.99 11.4899 15.13 11.5999 15.22C11.7099 15.31 11.8499 15.37 12.0199 15.37C12.1299 15.37 12.2199 15.35 12.2899 15.31C12.3599 15.27 12.4299 15.21 12.4699 15.14C12.5099 15.07 12.5499 14.99 12.5799 14.89C12.6099 14.79 12.6099 14.69 12.6099 14.58C12.6099 14.47 12.5999 14.37 12.5699 14.27C12.5399 14.17 12.4999 14.1 12.4399 14.03C12.3799 13.96 12.3099 13.91 12.2299 13.88C12.1499 13.85 12.0399 13.83 11.9299 13.83C11.8499 13.83 11.7799 13.84 11.7299 13.85C11.6799 13.86 11.6199 13.88 11.5799 13.9C11.5399 13.92 11.4999 13.95 11.4599 13.97C11.4199 13.99 11.3899 14.03 11.3599 14.06L10.6899 13.9Z" fill="white"/>
<path d="M12 5V1L7 6L12 11V7C15.31 7 18 9.69 18 13C18 16.31 15.31 19 12 19C8.69 19 6 16.31 6 13H4C4 17.42 7.58 21 12 21C16.42 21 20 17.42 20 13C20 8.58 16.42 5 12 5Z" fill="white"/>
<path d="M10.6899 13.9L10.9399 11.73H13.3299V12.44H11.6299L11.5199 13.36C11.5499 13.34 11.5899 13.33 11.6299 13.31C11.6699 13.29 11.7199 13.27 11.7799 13.26C11.8399 13.25 11.8999 13.23 11.9599 13.22C12.0199 13.21 12.0899 13.2 12.1599 13.2C12.3699 13.2 12.5499 13.23 12.7099 13.3C12.8699 13.37 13.0099 13.46 13.1199 13.58C13.2299 13.7 13.3199 13.85 13.3699 14.03C13.4199 14.21 13.4599 14.41 13.4599 14.63C13.4599 14.82 13.4299 15 13.3699 15.17C13.3099 15.34 13.2199 15.49 13.0999 15.62C12.9799 15.75 12.8299 15.86 12.6499 15.93C12.4699 16 12.2599 16.05 12.0099 16.05C11.8299 16.05 11.6499 16.02 11.4799 15.97C11.3099 15.92 11.1599 15.83 11.0199 15.73C10.8799 15.63 10.7799 15.49 10.6999 15.34C10.6199 15.19 10.5699 15.01 10.5699 14.81H11.4099C11.4299 14.99 11.4899 15.13 11.5999 15.22C11.7099 15.31 11.8499 15.37 12.0199 15.37C12.1299 15.37 12.2199 15.35 12.2899 15.31C12.3599 15.27 12.4299 15.21 12.4699 15.14C12.5099 15.07 12.5499 14.99 12.5799 14.89C12.6099 14.79 12.6099 14.69 12.6099 14.58C12.6099 14.47 12.5999 14.37 12.5699 14.27C12.5399 14.17 12.4999 14.1 12.4399 14.03C12.3799 13.96 12.3099 13.91 12.2299 13.88C12.1499 13.85 12.0399 13.83 11.9299 13.83C11.8499 13.83 11.7799 13.84 11.7299 13.85C11.6799 13.86 11.6199 13.88 11.5799 13.9C11.5399 13.92 11.4999 13.95 11.4599 13.97C11.4199 13.99 11.3899 14.03 11.3599 14.06L10.6899 13.9Z" fill="white"/>
</svg>
