<svg width="16" height="16" viewBox="0 0 16 16" fill="none" xmlns="http://www.w3.org/2000/svg">
<path d="M6.66671 11L10.6667 7.99998L6.66671 4.99998V11ZM8.00004 1.33331C4.32004 1.33331 1.33337 4.31998 1.33337 7.99998C1.33337 11.68 4.32004 14.6666 8.00004 14.6666C11.68 14.6666 14.6667 11.68 14.6667 7.99998C14.6667 4.31998 11.68 1.33331 8.00004 1.33331ZM8.00004 13.3333C5.06004 13.3333 2.66671 10.94 2.66671 7.99998C2.66671 5.05998 5.06004 2.66665 8.00004 2.66665C10.94 2.66665 13.3334 5.05998 13.3334 7.99998C13.3334 10.94 10.94 13.3333 8.00004 13.3333Z" fill="#AE29CF"/>
</svg>
