<svg width="20" height="20" viewBox="0 0 14 14" fill="none" xmlns="http://www.w3.org/2000/svg">
<path d="M6.54587 10.1697C6.52171 10.1116 6.50952 10.0491 6.50952 9.98232C6.50952 9.91533 6.5216 9.85278 6.54587 9.79479C6.56979 9.73714 6.60579 9.68439 6.65353 9.63654L6.65365 9.63632C6.70138 9.58846 6.75425 9.55269 6.81201 9.52865C6.87012 9.50438 6.93278 9.49242 6.99954 9.49242C7.06688 9.49242 7.12966 9.50438 7.18776 9.52865C7.24473 9.55223 7.29679 9.58744 7.34396 9.63392C7.34487 9.63483 7.34579 9.63552 7.34647 9.63632C7.39421 9.68394 7.4301 9.73692 7.45413 9.79479C7.4784 9.8529 7.49037 9.91545 7.49037 9.98232C7.49037 10.0491 7.4784 10.1116 7.45413 10.1697C7.4301 10.2274 7.39432 10.2804 7.34647 10.3282C7.2985 10.3761 7.2453 10.4125 7.18719 10.4368C7.1292 10.4611 7.06654 10.4733 6.99954 10.4733C6.93278 10.4733 6.87035 10.4611 6.81247 10.4368C6.75573 10.413 6.70343 10.3776 6.65627 10.3308C6.65535 10.3299 6.65444 10.329 6.65353 10.3282C6.60579 10.2805 6.56991 10.2276 6.54587 10.1697ZM7 0.588455C6.55635 0.588455 6.12614 0.630154 5.7096 0.713552C5.2925 0.79695 4.89009 0.921477 4.50283 1.08691L4.50295 1.08736C4.10931 1.25666 3.74279 1.45468 3.40396 1.68208C3.06444 1.90995 2.74953 2.16868 2.46014 2.45921L2.459 2.46035C2.16847 2.74985 1.90973 3.06453 1.68187 3.40416C1.45446 3.74299 1.25656 4.1095 1.08714 4.50314C1.08509 4.50792 1.08293 4.51248 1.08076 4.51715C0.918294 4.90007 0.795817 5.29781 0.71333 5.70978C0.629932 6.12632 0.588232 6.55652 0.588232 7.00006C0.588232 7.44382 0.629932 7.87391 0.71333 8.29044C0.796729 8.70743 0.921257 9.10995 1.08669 9.4972L1.08703 9.49698C1.25633 9.89061 1.45435 10.2571 1.68175 10.596C1.90962 10.9355 2.16836 11.2504 2.45889 11.5397L2.46003 11.5408C2.74941 11.8314 3.06421 12.0902 3.40384 12.318C3.74268 12.5452 4.1092 12.7432 4.50283 12.9126C4.50762 12.9147 4.51229 12.9169 4.51685 12.9191C4.89977 13.0816 5.29751 13.204 5.70949 13.2866C6.12603 13.37 6.55623 13.4117 6.99989 13.4117C7.44354 13.4117 7.87375 13.3701 8.29017 13.2866C8.70728 13.2032 9.10957 13.0785 9.49706 12.9132L9.49683 12.9128C9.89046 12.7435 10.257 12.5453 10.5958 12.3181C10.9352 12.0903 11.2501 11.8315 11.5395 11.5409L11.5407 11.5398C11.8311 11.2505 12.0899 10.9356 12.3177 10.5961C12.5451 10.2571 12.7431 9.89072 12.9125 9.49709C12.9146 9.49242 12.9166 9.48775 12.9189 9.4833C13.0815 9.10038 13.2038 8.70242 13.2863 8.29056C13.3697 7.87402 13.4115 7.44382 13.4115 7.00017C13.4115 6.55664 13.3698 6.12643 13.2863 5.7099C13.2029 5.2928 13.0784 4.8905 12.913 4.50314L12.9126 4.50325C12.7433 4.10962 12.5452 3.7431 12.3178 3.40427C12.09 3.06475 11.8312 2.74996 11.5408 2.46046L11.5396 2.45932C11.2502 2.16891 10.9353 1.91006 10.5959 1.6822C10.257 1.45479 9.89058 1.25678 9.49694 1.08747C9.49227 1.08542 9.4876 1.08326 9.48293 1.08109C9.1 0.918629 8.70226 0.796152 8.29028 0.713666C7.87386 0.630154 7.44365 0.588455 7 0.588455ZM5.59476 0.136604C6.04958 0.0455725 6.51807 0 7 0C7.48182 0 7.95042 0.0455725 8.40524 0.136604C8.85368 0.226382 9.28981 0.361162 9.71318 0.540946C9.71854 0.542883 9.72378 0.544934 9.72913 0.547212C10.1513 0.728819 10.5492 0.944377 10.9223 1.1948C11.2943 1.44442 11.6385 1.72731 11.9547 2.04438L11.9558 2.04552C12.2728 2.36157 12.5558 2.70587 12.8053 3.07786C13.0557 3.45087 13.2713 3.84883 13.4529 4.27106L13.4526 4.27117L13.4529 4.2722C13.6359 4.70024 13.7728 5.14127 13.8635 5.59483C13.9545 6.04964 14 6.51813 14 7.00006C14 7.48199 13.9545 7.9507 13.8635 8.40529C13.7737 8.85372 13.6389 9.28985 13.4592 9.71322C13.4572 9.71857 13.4552 9.72393 13.4528 9.72928C13.2712 10.1514 13.0557 10.5492 12.8052 10.9225C12.5557 11.2944 12.2727 11.6385 11.9557 11.9548L11.9546 11.956C11.6385 12.273 11.2942 12.5559 10.9222 12.8055C10.5492 13.0559 10.1511 13.2715 9.72902 13.4531L9.72879 13.4527L9.72777 13.4531C9.29972 13.636 8.85869 13.7729 8.40513 13.8637C7.95031 13.9548 7.48182 14.0003 6.99989 14.0003C6.51795 14.0003 6.04935 13.9548 5.59465 13.8637C5.14632 13.7738 4.71019 13.6392 4.2867 13.4594C4.28135 13.4573 4.27611 13.4554 4.27075 13.4531C3.84852 13.2715 3.45067 13.056 3.07754 12.8055C2.70566 12.5559 2.36136 12.273 2.04531 11.956L2.04417 11.9548C1.7271 11.6387 1.44421 11.2944 1.19458 10.9225C0.944157 10.5494 0.728597 10.1514 0.546989 9.72928L0.547445 9.72905L0.546989 9.72792C0.364128 9.29999 0.227181 8.85896 0.136377 8.40529C0.0455729 7.95047 0 7.48187 0 6.99983C0 6.51801 0.0455729 6.04941 0.136605 5.5946C0.226383 5.14628 0.361165 4.71015 0.540837 4.28678C0.542773 4.28143 0.544938 4.27619 0.547103 4.27083C0.728711 3.8486 0.944271 3.45064 1.19469 3.07763C1.44421 2.70576 1.72721 2.36146 2.04429 2.0453L2.04543 2.04416C2.36147 1.72709 2.70578 1.44419 3.07765 1.19457C3.45078 0.944149 3.84875 0.728591 4.27087 0.546984L4.27109 0.547326L4.27201 0.546984C4.70016 0.364239 5.14119 0.227407 5.59476 0.136604ZM7.30386 8.86614C7.30329 8.98144 7.22217 9.05413 7.11849 9.08534C7.08078 9.09674 7.04022 9.1022 7 9.1022C6.95978 9.1022 6.91922 9.09662 6.88151 9.08534C6.77783 9.05424 6.69671 8.98144 6.69614 8.86614L6.30684 3.7758C6.30672 3.77466 6.30672 3.77341 6.30672 3.77227H6.30661C6.30661 3.64763 6.49232 3.57198 6.72987 3.54235C6.81532 3.53176 6.90771 3.5264 7 3.5264C7.09229 3.5264 7.18468 3.53176 7.27002 3.54235C7.50768 3.57198 7.69339 3.64763 7.69339 3.77227C7.69339 3.77432 7.69316 3.77637 7.69294 3.77831L7.30386 8.86614Z" fill="#5A4CA7"/>
</svg>
